<svg xmlns="http://www.w3.org/2000/svg" xmlns:xlink="http://www.w3.org/1999/xlink" viewBox="0 0 335.88 38.06"><defs><style>.a254e200-59b4-4b7e-9a52-9f7aac66ce08,.a45febe8-c80b-4656-97f6-3cfbd1ce7002,.a4cd57ad-02ff-4178-a110-681b6742531b,.a4effd96-ec83-44b2-b11c-251cbc2268ab,.a9571be7-b7df-432e-b214-42babeb40b3a,.ab7d6bee-f460-4de3-a8b4-db5108a26afd,.ad314865-48e1-4c0c-9a0c-ae16367cc4b8,.ae72d85b-7618-4400-8582-9b71fc061d1f,.aef8aebf-f6ae-4dd6-b1ca-6e9196e0245c,.b1635efc-2433-432e-a0f5-b553b6ae542e,.b55bed0f-9509-4790-9250-f122e14d2166,.b5e9dbc7-47a3-40e4-ba4b-7531b5b9c850,.b6c627d6-f084-4644-abcf-9dbf2b4b3ec5,.bb1d8a6c-76ea-408d-9d4c-0aa0d8c9690f,.bc1ad85c-7ce3-4605-9089-cbe7b779901e,.bca20c18-a8ee-47bd-a90f-6129030d4e46,.be66c276-f2d0-4ac4-ad9a-fc4ceab9acfb,.beca51ac-f814-4952-bd0f-8ec3ac21aee9,.bf5d6672-b363-48e4-a9ca-4c58caea0106,.bfed4aa8-5b05-4abb-825f-785d9cfe8083,.e15a987c-aca8-4819-99ca-51bf40497f3b,.e2d946f3-7f20-4250-821d-5c3e7c66c1d2,.e42c89d9-e9c2-4ba5-9d00-5e2ca14bd038,.eb3f13ce-b317-4e02-aa9a-14a1bd3f3af3,.eb5a2d85-68a4-4a60-9191-cf43585701ab,.ef72f898-aed6-4714-9c87-dbaf0124ddcc,.f35e0099-47d0-49a7-a6fc-5e5c665e62b8,.fb307146-6515-4dfb-94f3-6c24b77ef0a6,.fdada835-bc9c-4d83-99e5-b486e80afbd9,.ffbd10f2-09bb-4184-9f19-30808530016e{fill-rule:evenodd;}.b55bed0f-9509-4790-9250-f122e14d2166{fill:url(#b63d958b-b5b9-4f74-822b-12ce3a288c77);}.fdada835-bc9c-4d83-99e5-b486e80afbd9{fill:url(#ac82cfc2-97bb-4653-980a-52fd842f424f);}.a45febe8-c80b-4656-97f6-3cfbd1ce7002{fill:url(#a2dd14f7-3b0b-4698-a124-5fd039c6c5a5);}.ae72d85b-7618-4400-8582-9b71fc061d1f{fill:url(#a9c11f53-4635-4d1a-8a07-b2582e954b02);}.beca51ac-f814-4952-bd0f-8ec3ac21aee9{fill:url(#ac999f07-daad-4975-9d03-96bc1961a3f6);}.aef8aebf-f6ae-4dd6-b1ca-6e9196e0245c{fill:url(#b3d418c5-1764-43e0-80b1-3d55ba13db6d);}.a4effd96-ec83-44b2-b11c-251cbc2268ab{fill:url(#b757ba18-1565-4529-8bd5-6904bb8ce4d6);}.ab7d6bee-f460-4de3-a8b4-db5108a26afd{fill:url(#bc8d6f58-28d0-4a66-9e50-c2e5f7504a61);}.ad314865-48e1-4c0c-9a0c-ae16367cc4b8{fill:url(#b46b8ec9-50e4-4931-9230-93562b7eb870);}.be66c276-f2d0-4ac4-ad9a-fc4ceab9acfb{fill:url(#e12b87ad-5b07-4337-93e5-1f9ddd1980a0);}.bb1d8a6c-76ea-408d-9d4c-0aa0d8c9690f{fill:url(#a7612316-c5e1-4cee-b7b5-eed21ceb88e9);}.fb307146-6515-4dfb-94f3-6c24b77ef0a6{fill:url(#afff452a-ebee-4903-86a0-8bfb7184801a);}.bca20c18-a8ee-47bd-a90f-6129030d4e46{fill:url(#ab9bbd95-755e-4a7b-a339-6c436a5ce599);}.b5e9dbc7-47a3-40e4-ba4b-7531b5b9c850{fill:url(#b4db0ea6-6d9c-49fc-a6b6-c900dac47ca2);}.a254e200-59b4-4b7e-9a52-9f7aac66ce08{fill:url(#b193bfba-b354-4017-922f-97b432fc6375);}.bc1ad85c-7ce3-4605-9089-cbe7b779901e{fill:url(#f75ff710-390c-4522-b30c-bc7c6694b72f);}.e15a987c-aca8-4819-99ca-51bf40497f3b{fill:url(#ac04d461-4576-491d-970b-5007cde1bddb);}.b6c627d6-f084-4644-abcf-9dbf2b4b3ec5{fill:url(#a8e6ed58-6cf3-45e0-85a1-6b4befad8138);}.a9571be7-b7df-432e-b214-42babeb40b3a{fill:url(#e2ef8662-0323-434e-bd02-6d7f493df0e7);}.bfed4aa8-5b05-4abb-825f-785d9cfe8083{fill:url(#f2b782ee-8a42-4cec-92a5-66aa03f9787d);}.e2d946f3-7f20-4250-821d-5c3e7c66c1d2{fill:url(#feb94ae9-f17a-44a5-aa17-09e09da4e3b5);}.ef72f898-aed6-4714-9c87-dbaf0124ddcc{fill:url(#e84a5913-ec08-40f8-a37c-0ebc18abb98d);}.a4cd57ad-02ff-4178-a110-681b6742531b{fill:url(#a57fde65-e90c-4efb-b5c1-23cb15f4d9a4);}.bf5d6672-b363-48e4-a9ca-4c58caea0106{fill:url(#bb2b1591-8c99-48e2-8031-d8954c39c379);}.f35e0099-47d0-49a7-a6fc-5e5c665e62b8{fill:url(#abd3f562-14cd-497e-ab11-1de21ce76038);}.b1635efc-2433-432e-a0f5-b553b6ae542e{fill:url(#a76d071c-264b-4230-bbc6-7dd359a76918);}.ffbd10f2-09bb-4184-9f19-30808530016e{fill:url(#f28954b2-b50b-444e-b563-8757080fc0fb);}.eb3f13ce-b317-4e02-aa9a-14a1bd3f3af3{fill:url(#a4dc00a1-ae4e-4684-91ea-492b1de8eb48);}.eb5a2d85-68a4-4a60-9191-cf43585701ab{fill:url(#b89da265-07c6-4969-abe0-0d214efa1e10);}.e42c89d9-e9c2-4ba5-9d00-5e2ca14bd038{fill:url(#b6293755-e007-42c3-ae61-4a0c5ed1f3fa);}</style><linearGradient id="b63d958b-b5b9-4f74-822b-12ce3a288c77" x1="7.1" y1="30.11" x2="7.1" y2="7.96" gradientUnits="userSpaceOnUse"><stop offset="0" stop-color="#513d1b"/><stop offset="0.43" stop-color="#dbc393"/><stop offset="1" stop-color="#7f702a"/></linearGradient><linearGradient id="ac82cfc2-97bb-4653-980a-52fd842f424f" x1="27.17" y1="38.06" x2="27.17" y2="0" xlink:href="#b63d958b-b5b9-4f74-822b-12ce3a288c77"/><linearGradient id="a2dd14f7-3b0b-4698-a124-5fd039c6c5a5" x1="106.27" y1="21.55" x2="106.27" y2="9.08" xlink:href="#b63d958b-b5b9-4f74-822b-12ce3a288c77"/><linearGradient id="a9c11f53-4635-4d1a-8a07-b2582e954b02" x1="122.11" y1="20.19" x2="122.11" y2="10.21" xlink:href="#b63d958b-b5b9-4f74-822b-12ce3a288c77"/><linearGradient id="ac999f07-daad-4975-9d03-96bc1961a3f6" x1="114.59" y1="31.31" x2="114.59" y2="4.77" xlink:href="#b63d958b-b5b9-4f74-822b-12ce3a288c77"/><linearGradient id="b3d418c5-1764-43e0-80b1-3d55ba13db6d" x1="151.24" y1="11.57" x2="151.24" y2="4.77" xlink:href="#b63d958b-b5b9-4f74-822b-12ce3a288c77"/><linearGradient id="b757ba18-1565-4529-8bd5-6904bb8ce4d6" x1="146.04" y1="33.8" x2="146.04" y2="9.76" xlink:href="#b63d958b-b5b9-4f74-822b-12ce3a288c77"/><linearGradient id="bc8d6f58-28d0-4a66-9e50-c2e5f7504a61" x1="141.41" y1="11.12" x2="141.41" y2="4.31" xlink:href="#b63d958b-b5b9-4f74-822b-12ce3a288c77"/><linearGradient id="b46b8ec9-50e4-4931-9230-93562b7eb870" x1="180.84" y1="31.08" x2="180.84" y2="5.9" xlink:href="#b63d958b-b5b9-4f74-822b-12ce3a288c77"/><linearGradient id="e12b87ad-5b07-4337-93e5-1f9ddd1980a0" x1="192.28" y1="29.49" x2="192.28" y2="25.86" xlink:href="#b63d958b-b5b9-4f74-822b-12ce3a288c77"/><linearGradient id="a7612316-c5e1-4cee-b7b5-eed21ceb88e9" x1="63.49" y1="16.11" x2="63.49" y2="2.73" xlink:href="#b63d958b-b5b9-4f74-822b-12ce3a288c77"/><linearGradient id="afff452a-ebee-4903-86a0-8bfb7184801a" x1="53.08" y1="16.34" x2="53.08" y2="3.41" xlink:href="#b63d958b-b5b9-4f74-822b-12ce3a288c77"/><linearGradient id="ab9bbd95-755e-4a7b-a339-6c436a5ce599" x1="62.33" y1="33.8" x2="62.33" y2="21.1" xlink:href="#b63d958b-b5b9-4f74-822b-12ce3a288c77"/><linearGradient id="b4db0ea6-6d9c-49fc-a6b6-c900dac47ca2" x1="54.93" y1="24.5" x2="54.93" y2="21.55" xlink:href="#b63d958b-b5b9-4f74-822b-12ce3a288c77"/><linearGradient id="b193bfba-b354-4017-922f-97b432fc6375" x1="81.41" y1="16.79" x2="81.41" y2="2.73" xlink:href="#b63d958b-b5b9-4f74-822b-12ce3a288c77"/><linearGradient id="f75ff710-390c-4522-b30c-bc7c6694b72f" x1="89.85" y1="16.56" x2="89.85" y2="3.41" xlink:href="#b63d958b-b5b9-4f74-822b-12ce3a288c77"/><linearGradient id="ac04d461-4576-491d-970b-5007cde1bddb" x1="85.69" y1="15.66" x2="85.69" y2="3.18" xlink:href="#b63d958b-b5b9-4f74-822b-12ce3a288c77"/><linearGradient id="a8e6ed58-6cf3-45e0-85a1-6b4befad8138" x1="82.1" y1="9.76" x2="82.1" y2="6.13" xlink:href="#b63d958b-b5b9-4f74-822b-12ce3a288c77"/><linearGradient id="e2ef8662-0323-434e-bd02-6d7f493df0e7" x1="83.84" y1="12.93" x2="83.84" y2="11.57" xlink:href="#b63d958b-b5b9-4f74-822b-12ce3a288c77"/><linearGradient id="f2b782ee-8a42-4cec-92a5-66aa03f9787d" x1="86.84" y1="33.57" x2="86.84" y2="22.69" xlink:href="#b63d958b-b5b9-4f74-822b-12ce3a288c77"/><linearGradient id="feb94ae9-f17a-44a5-aa17-09e09da4e3b5" x1="211.82" y1="29.04" x2="211.82" y2="6.13" xlink:href="#b63d958b-b5b9-4f74-822b-12ce3a288c77"/><linearGradient id="e84a5913-ec08-40f8-a37c-0ebc18abb98d" x1="226.04" y1="29.04" x2="226.04" y2="7.26" xlink:href="#b63d958b-b5b9-4f74-822b-12ce3a288c77"/><linearGradient id="a57fde65-e90c-4efb-b5c1-23cb15f4d9a4" x1="218.76" y1="26.32" x2="218.76" y2="18.15" xlink:href="#b63d958b-b5b9-4f74-822b-12ce3a288c77"/><linearGradient id="bb2b1591-8c99-48e2-8031-d8954c39c379" x1="253.56" y1="28.58" x2="253.56" y2="7.94" xlink:href="#b63d958b-b5b9-4f74-822b-12ce3a288c77"/><linearGradient id="abd3f562-14cd-497e-ab11-1de21ce76038" x1="281.77" y1="29.95" x2="281.77" y2="6.13" xlink:href="#b63d958b-b5b9-4f74-822b-12ce3a288c77"/><linearGradient id="a76d071c-264b-4230-bbc6-7dd359a76918" x1="295.3" y1="16.34" x2="295.3" y2="7.26" xlink:href="#b63d958b-b5b9-4f74-822b-12ce3a288c77"/><linearGradient id="f28954b2-b50b-444e-b563-8757080fc0fb" x1="296.69" y1="28.81" x2="296.69" y2="15.66" xlink:href="#b63d958b-b5b9-4f74-822b-12ce3a288c77"/><linearGradient id="a4dc00a1-ae4e-4684-91ea-492b1de8eb48" x1="320.39" y1="18.15" x2="320.39" y2="12.71" xlink:href="#b63d958b-b5b9-4f74-822b-12ce3a288c77"/><linearGradient id="b89da265-07c6-4969-abe0-0d214efa1e10" x1="321.08" y1="24.5" x2="321.08" y2="16.56" xlink:href="#b63d958b-b5b9-4f74-822b-12ce3a288c77"/><linearGradient id="b6293755-e007-42c3-ae61-4a0c5ed1f3fa" x1="326.86" y1="29.95" x2="326.86" y2="6.13" xlink:href="#b63d958b-b5b9-4f74-822b-12ce3a288c77"/></defs><title>logo</title><g id="b7c9da33-d5f1-413f-aea5-094e2794042c" data-name="圖層 2"><g id="ebde7af2-d03f-4881-afd2-d5ac4d1fa3a3" data-name="logo"><polygon class="b55bed0f-9509-4790-9250-f122e14d2166" points="14.2 15.22 14.2 7.96 11.08 7.96 11.08 7.96 11.08 7.96 11.08 7.96 11.08 7.96 9.94 8.01 8.84 8.19 7.78 8.45 6.77 8.82 5.79 9.29 4.89 9.85 4.04 10.49 3.24 11.2 2.53 12 1.9 12.85 1.33 13.75 0.87 14.72 0.5 15.73 0.23 16.8 0.05 17.89 0 19.03 0.05 20.16 0.23 21.26 0.5 22.33 0.87 23.34 1.33 24.31 1.9 25.21 2.53 26.06 3.24 26.86 4.04 27.57 4.89 28.21 5.79 28.77 6.77 29.23 7.78 29.61 8.84 29.87 9.94 30.05 11.08 30.11 11.08 30.11 11.1 30.11 11.1 30.11 11.1 30.11 14.2 30.11 14.2 22.84 11.08 22.84 10.69 22.82 10.31 22.77 9.94 22.66 9.61 22.54 9.27 22.38 8.95 22.18 8.67 21.97 8.38 21.72 8.13 21.46 7.92 21.15 7.73 20.85 7.57 20.52 7.44 20.16 7.34 19.79 7.28 19.42 7.27 19.03 7.28 18.64 7.34 18.27 7.44 17.89 7.57 17.54 7.73 17.2 7.92 16.9 8.13 16.6 8.38 16.34 8.65 16.09 8.95 15.88 9.25 15.68 9.59 15.52 9.94 15.4 10.31 15.29 10.69 15.24 11.08 15.22 11.08 15.22 11.08 15.22 11.08 15.22 11.08 15.22 14.2 15.22 14.2 15.22"/><polygon class="fdada835-bc9c-4d83-99e5-b486e80afbd9" points="28.37 22.84 28.75 22.82 29.1 22.77 29.44 22.68 29.77 22.57 30.09 22.43 30.39 22.25 30.68 22.06 30.94 21.85 31.19 21.6 31.4 21.33 31.6 21.05 31.78 20.73 31.92 20.41 32.02 20.07 32.11 19.72 32.17 19.37 39.45 19.37 39.36 20.46 39.17 21.55 38.87 22.57 38.48 23.57 38 24.51 37.45 25.39 36.79 26.2 36.08 26.97 35.3 27.66 34.47 28.28 33.57 28.81 32.61 29.25 31.62 29.63 30.57 29.87 29.49 30.05 28.39 30.11 19.73 30.11 19.73 30.8 24.56 30.8 24.56 38.06 14.89 38.06 14.89 0 24.56 0 24.56 7.27 19.73 7.27 19.73 7.96 28.37 7.96 29.49 8.01 30.55 8.17 31.6 8.43 32.61 8.81 33.57 9.25 34.45 9.78 35.3 10.4 36.08 11.07 36.79 11.84 37.45 12.67 38 13.56 38.48 14.48 38.87 15.47 39.17 16.5 39.36 17.58 39.45 18.67 32.17 18.67 32.11 18.32 32.02 17.97 31.92 17.63 31.78 17.31 31.6 17.01 31.4 16.73 31.19 16.46 30.94 16.21 30.68 16 30.39 15.81 30.09 15.63 29.77 15.49 29.44 15.38 29.1 15.29 28.75 15.24 28.37 15.22 24.56 15.22 24.56 22.84 28.37 22.84 28.37 22.84"/><polygon class="a45febe8-c80b-4656-97f6-3cfbd1ce7002" points="110.66 10.44 110.89 12.25 110.66 12.25 110.43 12.25 110.2 12.25 109.97 12.25 109.74 12.48 109.5 12.48 109.27 12.48 109.27 12.48 108.81 12.71 108.58 13.16 108.12 13.39 107.89 13.84 107.66 14.07 107.66 14.52 107.42 14.98 107.42 15.43 107.19 17.02 109.97 17.24 110.43 17.24 110.66 20.42 110.66 20.42 110.43 20.42 110.43 20.42 110.43 20.42 110.43 20.42 110.43 20.42 110.43 20.42 110.43 20.42 110.43 20.42 110.2 20.42 109.97 20.42 109.74 20.42 109.74 20.42 109.5 20.42 109.5 20.42 109.27 20.65 109.04 20.65 109.04 20.87 108.81 20.87 108.58 21.1 108.35 21.1 108.12 21.1 108.12 21.1 107.89 20.87 107.66 20.87 107.66 20.87 107.42 20.87 107.42 20.65 107.42 20.65 107.19 20.65 107.19 20.65 106.96 20.65 106.96 20.65 106.73 20.65 106.73 20.65 106.73 20.65 106.5 20.87 106.5 20.87 106.5 20.87 106.5 20.87 106.27 20.87 106.04 20.87 106.04 21.1 105.8 21.1 105.8 21.1 105.57 21.1 105.57 21.32 105.34 21.32 105.11 21.32 104.88 21.55 104.65 21.55 104.42 21.55 103.95 21.55 103.72 21.55 103.49 21.55 103.26 21.55 102.8 21.1 102.57 20.65 102.33 19.96 102.33 19.51 102.33 19.06 102.57 18.38 102.8 17.92 103.03 17.24 103.26 17.24 103.26 17.02 103.49 17.02 103.49 16.79 103.72 16.56 103.72 16.34 103.72 16.34 103.72 16.11 103.72 15.88 103.72 15.88 103.72 15.66 103.72 15.66 103.49 15.43 103.49 15.43 103.49 15.2 103.49 15.2 103.03 14.98 102.57 14.52 102.11 14.07 101.87 13.61 101.64 13.16 101.64 12.71 101.64 12.25 101.64 11.57 101.64 11.35 101.64 11.12 101.87 10.67 102.11 10.44 102.33 10.21 102.57 9.98 102.8 9.98 103.26 9.98 103.49 9.76 103.49 9.76 103.72 9.53 103.95 9.53 104.19 9.3 104.42 9.3 104.65 9.08 104.88 9.08 104.88 9.08 105.11 9.08 105.34 9.08 105.57 9.08 105.57 9.3 105.8 9.3 106.04 9.3 106.04 9.3 106.73 9.53 107.19 9.76 107.66 9.98 108.35 10.21 108.81 10.21 109.27 10.44 109.97 10.44 110.66 10.44 110.66 10.44 110.66 10.44 110.66 10.44 110.66 10.44 110.66 10.44 110.66 10.44 110.66 10.44 110.66 10.44 110.66 10.44"/><polygon class="ae72d85b-7618-4400-8582-9b71fc061d1f" points="120.6 19.96 122.92 20.19 123.15 19.74 123.38 19.51 123.84 19.06 123.84 18.83 124.07 18.38 124.3 17.92 124.3 17.47 124.3 17.02 124.3 17.02 124.07 17.02 123.84 16.79 123.61 16.79 123.61 16.56 123.38 16.56 123.38 16.34 123.38 16.11 123.38 15.88 123.38 15.43 123.38 15.2 123.38 14.98 123.61 14.75 123.84 14.52 124.07 14.52 124.53 14.3 124.77 14.3 125.23 14.07 125.46 13.84 125.92 13.61 125.92 13.16 126.15 12.71 126.15 12.48 126.38 12.03 126.38 11.8 126.15 11.8 126.15 11.57 126.15 11.57 126.15 11.35 126.15 11.12 126.15 11.12 126.15 10.89 125.92 10.89 125.69 10.67 125.69 10.67 125.46 10.44 125.23 10.44 125 10.44 124.77 10.21 124.53 10.21 124.53 10.21 124.53 10.21 124.53 10.21 124.3 10.21 124.3 10.21 124.3 10.21 124.3 10.21 124.07 10.21 123.84 10.44 123.15 10.67 122.69 10.67 122.22 10.89 121.76 10.89 121.3 10.89 120.83 10.67 120.37 10.67 120.14 10.44 119.91 10.44 119.68 10.44 119.45 10.44 119.22 10.44 118.98 10.44 118.75 10.44 118.52 10.44 118.75 12.48 118.75 12.48 118.98 12.48 119.22 12.48 119.45 12.48 119.45 12.25 119.68 12.25 119.91 12.25 119.91 12.25 120.14 12.25 120.14 12.25 120.37 12.48 120.6 12.48 120.6 12.48 120.83 12.71 120.83 12.71 120.83 12.93 120.83 12.93 120.83 13.16 120.83 13.16 120.83 13.16 120.83 13.16 120.83 13.39 120.83 13.39 120.83 13.39 120.83 13.84 120.83 14.3 120.83 14.75 120.6 15.2 120.6 15.43 120.37 15.88 120.14 16.11 119.91 16.56 119.68 16.56 119.68 16.56 119.45 16.56 119.45 16.56 119.22 16.56 119.22 16.56 118.98 16.56 118.98 16.56 118.75 16.56 118.75 16.56 118.52 16.56 118.52 16.56 118.29 16.56 118.29 16.56 118.06 16.56 118.06 16.56 117.83 19.74 118.06 19.74 118.29 19.96 118.52 19.96 118.52 20.19 118.75 20.19 118.98 20.19 119.22 20.19 119.45 20.19 119.68 20.19 119.91 20.19 119.91 20.19 120.14 20.19 120.14 20.19 120.37 20.19 120.37 20.19 120.6 20.19 120.6 19.96 120.6 19.96"/><polygon class="beca51ac-f814-4952-bd0f-8ec3ac21aee9" points="118.52 10.44 118.75 12.48 118.52 12.48 118.06 12.48 117.83 12.48 117.6 12.48 117.36 12.25 117.13 12.25 116.9 12.25 116.67 12.03 116.44 12.03 116.44 12.03 116.44 11.8 116.21 11.8 116.21 11.8 115.98 11.8 115.98 11.8 115.98 11.8 115.75 11.8 115.75 11.8 115.75 11.8 115.52 12.03 115.52 12.03 115.52 12.03 115.28 12.03 115.28 12.03 115.05 15.66 115.52 16.79 115.52 16.79 115.75 16.79 115.75 16.79 115.98 16.79 115.98 16.79 116.21 16.79 116.21 16.79 116.44 16.79 116.44 16.79 116.44 16.79 116.44 16.79 116.67 16.79 116.67 16.79 116.67 16.79 116.67 16.79 116.9 16.79 116.9 16.79 117.13 16.79 117.13 16.79 117.36 16.79 117.36 16.79 117.6 16.56 117.83 16.56 118.06 16.56 117.83 19.74 116.67 19.96 116.44 19.96 116.21 19.96 115.98 20.19 115.75 20.19 115.52 20.42 115.28 20.65 115.05 20.87 115.05 21.1 114.59 22.46 115.05 23.14 115.05 23.59 115.05 24.05 114.82 24.5 114.82 24.73 114.82 25.18 114.82 25.64 114.82 26.09 114.82 26.32 114.82 26.77 114.82 27 114.82 27.23 114.82 27.45 114.82 27.68 114.82 27.91 115.05 28.14 115.05 28.36 115.05 28.36 115.05 28.36 115.05 28.58 115.05 28.58 115.05 28.81 115.05 28.81 115.05 28.81 115.05 29.04 115.05 29.27 115.05 29.49 115.05 29.49 114.82 29.72 114.82 29.95 114.82 30.17 114.59 30.17 114.59 30.4 114.13 30.63 113.9 30.85 113.67 31.08 113.2 31.31 112.74 31.31 112.51 31.08 112.28 31.08 111.82 30.85 111.82 30.63 111.82 30.17 111.82 29.95 111.82 29.72 111.82 29.27 111.82 29.04 111.82 28.81 111.82 28.58 111.82 27.68 112.05 27 112.05 26.32 112.05 25.41 112.28 24.73 112.28 24.05 112.28 23.37 112.28 22.68 112.05 22.46 112.05 22.01 112.05 21.78 112.05 21.55 112.05 21.32 112.05 21.1 112.05 20.87 112.05 20.65 111.82 20.65 111.82 20.42 111.58 20.42 111.35 20.42 111.12 20.42 110.89 20.42 110.89 20.42 110.66 20.42 110.43 17.24 112.05 17.02 112.05 17.02 112.28 17.02 112.51 17.02 112.51 16.79 112.51 16.79 112.74 16.56 112.74 16.56 112.74 16.34 112.97 16.11 112.97 15.66 112.97 15.43 112.97 15.2 112.97 14.75 112.97 14.52 112.97 14.3 112.97 14.07 112.97 13.84 112.97 13.61 112.97 13.39 112.97 13.16 112.97 12.93 112.97 12.71 112.74 12.48 112.74 12.25 112.51 12.25 112.51 12.25 112.28 12.25 112.05 12.25 111.82 12.25 111.58 12.25 111.35 12.25 111.12 12.25 111.12 12.25 111.12 12.25 111.12 12.25 110.89 12.25 110.89 12.25 110.89 12.25 110.89 12.25 110.89 12.25 110.66 10.44 110.89 10.44 111.12 10.44 111.35 10.21 111.58 10.21 111.82 10.21 111.82 10.21 112.05 10.21 112.28 10.21 112.51 9.98 112.74 9.98 112.74 9.76 112.74 9.76 112.74 9.76 112.74 9.53 112.74 9.53 112.97 9.3 112.97 9.3 112.74 9.08 112.74 9.08 112.74 8.85 112.74 8.62 112.74 8.62 112.51 8.4 112.51 8.4 112.28 8.17 112.28 8.17 112.05 7.94 112.05 7.72 111.82 7.49 111.82 7.26 111.82 7.26 111.82 7.04 111.82 6.81 112.05 6.13 112.28 5.68 112.74 5.22 113.2 4.99 113.9 4.77 114.36 4.77 115.05 4.99 115.52 5.22 115.52 5.45 115.75 5.68 115.75 5.68 115.98 5.9 115.98 6.13 115.98 6.36 116.21 6.58 116.21 6.81 116.21 6.81 116.21 7.04 116.21 7.26 115.98 7.49 115.98 7.49 115.98 7.72 115.75 7.94 115.75 7.94 115.75 8.17 115.75 8.17 115.75 8.17 115.52 8.4 115.52 8.4 115.52 8.4 115.52 8.62 115.52 8.62 115.75 8.85 115.75 8.85 115.75 9.08 115.75 9.3 115.75 9.3 115.98 9.53 115.98 9.76 116.21 9.98 116.21 9.98 116.44 10.21 116.67 10.21 116.9 10.21 117.13 10.44 117.36 10.44 117.6 10.44 117.83 10.44 117.83 10.44 117.83 10.44 117.83 10.44 117.83 10.44 117.83 10.44 117.83 10.44 118.06 10.44 118.06 10.44 118.06 10.44 118.06 10.44 118.29 10.44 118.29 10.44 118.29 10.44 118.52 10.44 118.52 10.44 118.52 10.44 118.52 10.44"/><polygon class="aef8aebf-f6ae-4dd6-b1ca-6e9196e0245c" points="155.29 5.9 153.9 6.13 151.12 6.13 151.35 5.45 151.12 5.22 150.89 4.99 150.66 4.99 150.43 4.99 150.2 4.77 149.97 4.77 149.74 4.77 149.51 4.77 149.28 4.77 149.28 4.99 149.04 5.22 148.81 5.22 148.81 5.45 148.58 5.68 148.58 5.68 148.58 5.9 148.58 5.9 148.35 5.9 148.35 5.9 148.35 5.9 148.35 5.9 148.12 5.9 148.12 5.9 148.12 5.9 147.89 5.9 147.66 6.13 147.43 6.13 147.19 6.36 147.19 6.58 146.96 6.81 146.96 7.04 146.96 7.26 146.96 7.26 146.96 7.26 146.96 7.49 146.96 7.49 146.96 7.49 146.96 7.49 146.96 7.49 146.96 7.49 147.66 7.94 148.35 7.72 148.58 8.17 148.58 9.08 148.12 9.98 148.35 10.67 147.89 11.57 149.51 11.12 149.51 10.89 149.74 10.67 149.74 10.44 149.74 10.21 149.97 9.98 149.97 9.76 149.97 9.53 149.97 9.3 149.97 8.4 149.97 8.17 150.2 8.17 150.43 7.94 150.43 7.94 150.66 7.94 150.89 7.94 150.89 7.94 151.12 7.72 151.12 7.72 151.35 7.94 151.35 7.94 151.35 7.94 151.35 7.94 151.59 7.94 151.59 7.94 151.82 7.94 151.82 7.94 151.82 7.94 152.05 7.94 152.05 7.94 152.05 7.94 152.28 7.94 152.28 7.72 152.28 7.72 152.28 7.72 155.29 7.72 155.52 6.36 155.29 5.9 155.29 5.9"/><polygon class="a4effd96-ec83-44b2-b11c-251cbc2268ab" points="143.26 25.64 143.26 25.64 143.5 25.64 143.73 25.64 143.73 25.86 143.73 25.86 143.96 26.09 143.96 26.32 143.96 26.32 143.96 27.45 143.73 32.22 143.73 32.22 143.73 32.22 143.73 32.44 143.73 32.44 143.5 32.67 143.5 32.67 143.5 32.67 143.5 32.9 143.73 32.9 143.73 33.12 143.73 33.35 143.96 33.35 143.96 33.57 144.19 33.57 144.42 33.8 144.42 33.8 144.65 33.8 144.88 33.8 145.11 33.57 145.34 33.35 145.34 33.35 145.34 33.12 145.58 32.9 145.58 32.67 145.58 32.67 145.58 32.67 145.58 32.67 145.58 32.44 145.58 32.44 145.58 32.44 145.58 32.44 145.58 32.44 145.34 27.23 145.34 27 145.34 26.77 145.34 26.54 145.58 26.32 145.58 26.09 145.81 26.09 146.04 25.86 146.04 25.64 147.66 25.18 151.12 25.18 155.75 25.86 155.98 25.86 156.21 25.86 156.21 25.86 156.44 26.09 156.68 26.09 156.91 26.09 157.14 26.09 157.37 26.09 157.6 26.09 158.06 25.86 158.53 25.86 158.75 25.64 159.22 25.41 159.45 25.18 159.91 24.96 160.14 24.73 160.61 22.46 159.45 23.14 155.06 22.91 152.74 22.68 152.28 22.68 151.82 22.68 151.35 22.46 151.12 22.46 150.66 22.23 150.2 22.23 149.74 22.01 149.28 21.78 149.97 20.19 148.35 20.19 147.19 22.23 146.04 22.46 145.81 22.23 145.58 22.01 145.58 22.01 145.34 21.78 145.34 21.55 145.34 21.32 145.34 21.32 145.34 21.1 145.34 20.87 145.34 20.65 145.58 20.65 145.58 20.42 145.81 20.42 145.81 20.42 146.04 20.42 146.04 20.42 146.27 20.65 146.27 20.65 146.27 20.65 146.5 20.65 146.5 20.65 146.73 20.87 146.73 20.87 146.96 20.87 146.96 20.87 147.19 20.87 147.19 20.87 147.19 20.87 147.43 20.65 147.43 20.65 147.43 20.65 147.43 20.65 147.66 20.42 148.35 20.42 149.97 20.42 150.43 20.42 150.89 20.42 151.35 20.42 151.82 20.42 152.28 20.42 152.74 20.42 153.21 20.65 153.67 20.65 153.9 18.83 152.51 18.83 151.12 18.61 151.12 18.38 150.89 18.15 150.89 17.92 150.66 17.92 150.43 17.92 150.2 17.7 149.97 17.7 149.74 17.7 149.51 17.7 149.28 17.7 149.04 17.92 148.81 17.92 148.58 18.15 148.58 18.15 148.35 18.38 148.12 18.61 145.58 18.61 145.81 16.34 152.05 16.56 152.05 16.56 152.28 16.56 152.28 16.56 152.28 16.79 152.28 16.79 152.51 16.79 152.51 16.79 152.51 16.79 152.74 16.79 152.74 16.79 152.74 16.56 152.98 16.56 152.98 16.56 152.98 16.34 153.21 16.34 153.21 16.11 153.44 14.52 150.89 14.52 146.96 14.75 146.73 14.75 146.73 14.75 146.5 14.75 146.5 14.75 146.5 14.52 146.27 14.52 146.27 14.3 146.27 14.3 146.27 14.07 146.27 13.61 146.5 13.39 146.5 13.16 146.73 12.71 146.73 12.48 146.73 12.25 146.73 12.03 146.73 11.8 146.73 11.8 146.96 11.8 146.96 11.8 146.96 11.57 146.96 11.57 146.96 11.57 146.96 11.35 146.96 11.12 146.73 10.89 146.73 10.67 146.5 10.44 146.27 10.21 146.04 10.21 145.81 9.98 145.58 9.98 145.58 9.98 145.58 9.98 145.58 9.98 145.58 9.98 145.34 9.98 145.34 9.76 145.34 9.76 145.34 9.76 145.11 9.76 145.11 9.98 145.11 9.98 145.11 9.98 144.88 9.98 144.88 9.98 144.88 9.98 144.88 10.21 144.65 10.21 144.65 10.44 144.65 10.44 144.42 10.67 144.42 10.67 144.42 10.67 144.19 10.89 144.19 10.89 143.96 11.12 143.73 11.35 143.73 11.57 143.5 11.57 143.26 11.8 143.03 12.03 142.8 12.03 142.57 12.25 142.34 12.48 141.88 12.48 141.41 12.71 141.18 12.71 140.72 12.48 140.49 12.48 140.03 12.25 139.8 12.03 139.8 12.25 139.56 12.25 139.56 12.25 139.33 12.25 139.33 12.48 139.1 12.48 139.1 12.48 138.87 12.25 138.87 12.25 138.87 12.25 138.87 12.25 138.87 12.25 138.87 12.25 138.87 12.25 138.87 12.25 138.87 12.25 138.64 12.48 138.64 12.48 138.41 12.48 138.41 12.48 138.41 12.48 138.41 12.71 138.41 12.71 138.41 12.71 138.41 12.71 138.18 12.71 138.18 12.71 138.18 12.93 138.18 12.93 138.18 12.93 138.18 12.93 138.18 12.93 138.18 12.93 138.18 13.16 138.18 13.16 138.41 13.16 138.41 13.16 138.41 13.16 138.41 13.39 138.64 13.39 138.64 13.39 138.87 13.39 138.87 13.61 139.1 13.61 139.33 13.61 139.33 13.61 139.56 13.61 139.56 13.84 139.8 13.84 139.8 13.84 140.03 13.84 140.03 13.84 140.26 14.07 140.49 14.07 140.49 14.07 140.72 14.07 140.95 14.07 141.18 14.07 141.18 13.84 141.41 13.84 141.41 13.84 141.65 13.84 141.88 13.84 141.88 13.61 142.34 13.61 142.57 13.61 142.8 13.61 143.03 13.84 143.26 14.07 143.5 14.3 143.73 14.52 143.73 14.75 143.73 14.75 143.73 14.75 143.73 14.98 143.73 14.98 143.73 14.98 143.73 14.98 143.5 14.98 143.5 14.98 143.5 14.98 143.5 14.98 143.5 14.98 143.5 14.98 143.5 14.98 143.5 14.98 143.5 14.98 143.5 14.98 143.26 14.98 143.26 14.75 143.03 14.75 143.03 14.75 142.8 14.75 142.8 14.75 142.57 14.75 142.57 14.75 142.34 14.75 142.34 14.75 142.11 14.75 142.11 14.75 141.88 14.98 141.88 14.98 141.88 14.98 141.65 14.98 141.18 15.2 140.49 15.2 140.03 15.2 139.56 15.43 138.87 15.43 138.41 15.43 137.94 15.43 137.48 15.2 137.02 15.43 136.79 15.66 136.33 15.88 136.09 16.11 136.09 16.34 135.87 16.79 135.87 17.02 135.63 17.47 135.63 17.47 135.63 17.7 135.87 17.7 135.87 17.7 135.87 17.7 135.87 17.7 135.87 17.92 135.87 17.92 135.87 17.92 136.09 17.92 136.09 18.15 136.33 18.15 136.56 18.15 136.56 18.15 136.79 18.15 137.02 18.15 137.25 18.15 137.48 18.15 137.71 17.92 137.94 17.92 138.18 17.7 138.41 17.47 138.64 17.24 138.87 17.02 139.1 16.79 139.33 16.79 139.56 16.79 140.03 16.79 140.26 16.79 140.72 16.79 140.95 16.79 141.18 16.79 141.65 17.24 143.26 17.02 143.96 16.56 143.96 18.83 140.95 18.83 140.49 18.38 140.49 18.15 140.26 18.15 140.26 18.15 140.03 17.92 139.8 17.92 139.8 17.92 139.56 17.92 139.33 17.92 139.33 17.92 139.1 17.92 138.87 17.92 138.87 18.15 138.64 18.15 138.41 18.15 138.41 18.38 138.18 18.61 138.41 19.28 138.18 19.28 137.94 19.28 137.94 19.51 137.71 19.51 137.48 19.51 137.25 19.51 137.02 19.51 136.79 19.51 136.56 19.74 136.33 19.74 136.33 19.74 136.09 19.96 135.87 20.19 135.87 20.42 135.63 20.65 135.63 20.87 135.63 20.87 135.87 21.1 135.87 21.1 135.87 21.1 135.87 21.32 136.09 21.32 136.09 21.55 136.09 21.55 136.33 21.78 136.33 21.78 136.33 21.78 136.56 21.78 136.56 21.78 136.79 21.78 136.79 21.78 137.02 21.78 137.25 21.78 137.25 21.78 137.48 21.78 137.71 21.55 137.94 21.32 137.94 21.32 138.18 21.1 138.18 20.87 139.1 20.87 139.8 23.14 141.18 23.14 140.49 21.32 140.49 21.32 140.49 21.1 140.72 21.1 140.72 21.1 140.72 21.1 140.72 20.87 140.95 20.87 140.95 20.87 143.96 20.87 143.73 22.46 143.73 22.68 143.73 22.68 143.73 22.68 143.5 22.91 143.5 22.91 143.26 22.91 143.26 22.91 143.03 22.91 141.18 23.14 139.8 23.14 137.48 23.37 137.25 23.59 137.02 23.59 136.79 23.59 136.56 23.59 136.33 23.59 136.09 23.59 135.63 23.59 135.63 23.59 135.4 23.37 135.4 23.37 135.17 23.37 134.94 23.37 134.94 23.37 134.71 23.14 134.71 23.37 134.48 23.37 134.48 23.37 134.25 23.37 134.25 23.37 134.01 23.37 134.01 23.37 133.78 23.37 133.78 23.37 133.55 23.37 133.09 23.59 132.63 23.82 132.4 24.05 132.16 24.5 131.93 24.96 131.7 25.18 131.47 25.86 131.47 26.32 131.47 26.32 131.47 26.32 131.47 26.32 131.47 26.32 131.47 26.32 131.47 26.54 131.47 26.54 131.47 26.54 131.47 26.54 131.47 26.54 131.47 26.54 131.47 26.54 131.47 26.54 131.47 26.54 131.47 26.54 131.47 26.77 131.7 27 131.7 27.45 131.93 27.68 132.16 27.91 132.4 28.14 132.86 28.36 133.32 28.36 133.55 28.36 133.78 28.36 133.78 28.36 134.01 28.36 134.25 28.36 134.25 28.36 134.48 28.14 134.48 28.14 134.71 28.14 134.94 27.91 135.17 27.45 135.4 27.23 135.87 27 136.09 26.77 136.56 26.54 136.79 26.54 137.25 26.54 140.72 25.86 143.26 25.64 143.26 25.64"/><polygon class="ab7d6bee-f460-4de3-a8b4-db5108a26afd" points="139.8 5.68 140.03 6.36 139.8 6.36 139.8 6.36 139.56 6.36 139.56 6.36 139.33 6.36 139.33 6.13 139.1 6.13 139.1 6.13 138.87 6.13 138.64 6.36 138.64 6.36 138.41 6.36 138.18 6.36 137.94 6.36 137.94 6.58 137.71 6.58 137.48 6.81 137.48 6.81 137.25 7.04 137.25 7.26 137.25 7.49 137.25 7.72 137.25 7.94 137.25 8.17 137.25 8.4 137.48 8.62 137.48 8.85 137.71 9.08 137.94 9.3 138.18 9.3 138.41 9.3 138.64 9.3 138.87 9.3 139.1 9.3 139.1 9.3 139.33 9.3 139.56 9.3 139.56 9.08 139.8 9.08 139.8 9.08 139.8 8.85 140.03 8.85 140.03 8.85 140.03 8.62 140.26 8.62 140.26 8.85 140.26 8.85 140.26 8.85 140.72 9.76 141.41 11.12 141.88 10.89 142.57 10.21 142.8 9.3 142.8 9.08 143.03 8.85 143.26 8.62 143.5 8.62 143.5 8.4 143.73 8.4 143.96 8.17 144.19 8.17 145.34 8.17 145.34 7.26 145.58 6.36 145.34 6.58 145.11 6.58 144.88 6.58 144.42 6.58 144.19 6.58 143.96 6.58 143.73 6.58 143.5 6.58 142.34 5.22 142.34 4.99 142.11 4.99 142.11 4.77 141.88 4.77 141.65 4.54 141.65 4.54 141.41 4.31 141.18 4.31 140.95 4.31 140.72 4.54 140.49 4.54 140.26 4.77 140.03 4.99 140.03 5.22 139.8 5.45 139.8 5.68 139.8 5.68"/><path class="ad314865-48e1-4c0c-9a0c-ae16367cc4b8" d="M195.52,7h0Zm-1.85,6.8-.46-.23h-3.93l-.23-.22h-.46l-.24-.23v-.23l-.23-.22.93-1.36h.23l.23-.23H190v-.23h.46v.23h.7l2.31-.23,1.39-.45.69-.23-.23-1.36.23-.68h.24V7.94h0l.22-.22h0V7.49h-.22V7.26h0V7h-.24l-1.16.45-1.15.45-1.16.23-1.15.23h-2.55L187,8.17l-1.15-.23-.23-.22h-1.39l-.46.22-.46.23-.47.23-.23.45-.23.45-.23.23-.23.68h-1.62l-2.54.23h-2.31l-1.39.45-.24-.45.7-.91V9.3h.69l.24.23h2.31L178,9.3h.92l.47-.22h1.38l.23-.23h.24l.23-.23V8.4l.23-.23V7.72h0V7.49h0V7.26h0V7h0V6.81h0l.23-.23h0V6.36h0l-.69.22h-.93l-.69.23h-3.7l-.7-.68-1.85-.23h-.46l-.46.23h-.23v.23l-.23.22h-.24l-.23.23-.23,1.13v.91h0l.23.23V9.3h.23v.23h.47l1.15.23-.69.68-.23.23h-.23l-.23.22h-.24l-.23.23v.23l-.23.22-.23.23v.45h.23v.46l.23.22h0l.23.23.24.23h.23v.22l.23.23v.23l.23.23V15h0v.22h0v.23h0l-.23.23v.68l-.23.68-.47.45-.23.68-.69.46-.46.22-.7.45-.46.23h-.46l-.46-.23h-.7l-.23-.22-.46-.23-.23-.22-.23-.23-.23.23-.24.45v.68l-.23.22V21.1h0v.22h0V22l.23.22v.23l.24.23v.22l.23.23.23.23h.23l.23.22h.46v.23h.93v-.23h.46v-.22h0l.23-.46.23-.22.23-.23.23-.45.24-.23.23-.23.23-.23.46-.22.23-.23.23-.22.47-.23.23-.46.23-.22v-.46l.23-.22v-.45h.23v.22h.23l.23.23h0v.22h0v.23h0v.23h.46v0H174v-.23h.23l.23.23h0l-.23,3.63L174,27.22l-.7,2.27h0v.23h0V30h0v.45l.23.22v.23H174v.23h.46l.23-.23h.46V28.58l.24-.45v-.68h0v-.23h.23v-.9h.23l.23-.23h.46l.23-.23h0l.23.23h.7l.23-.23h0l.46-1.36-.92-.22h-1.62l-.23.22v.23l-.23.23.23-1.37,2.77-.22v-.91h0v-.23h-.23V22h-1.85l-.23.22-.23-1.13,2.54-.23v-.68H178l-.46-.45H176.1V20h-.23l.69-1.13,2.31-.22v-.69l-.92-.45-1.62,1.36L176.1,20l-.23.23h0v.23h0l-.23.23h0l.23.22h0v.23h0v.22h.23v.91l-.46,1.14v3.85h.23l.23-.22H181l.24.22h.23v1.36h0l-.23.23h0l.23.23h0v.23l.23.22h.92l.47-.68.23-.23.23-.22.23-.23.46-.22.23-.23.23-.23.23-.45.24-.23-.93-.91H184l-.23.23-.23.23h-.23v.22h-.7v-.45l-.46-.23h-.69l-.23-.23h-1.62l-.23-.22v-.68h0l.23-.23v-.22h2.08l.23-1.14H179.1v-.45l.24-.23v-.23l.23-.22h0l.23-.23h1.85l.23-.23h0v-.23h0V21.1h0v-.23h-.23v-.22h-.23l-1.85.22v-.68h0l.23-.23h0l.23-.22h.23V20h1.16V18.83H180v-.22h-.23v-.23h0v-.23h.46l.23-1.13v-.23h-.23v-.23h-.92l-.24.23h-.23l-.23-.23h-.23v-.22H178v-.23H177v.23h-.23l-.23.22h-.46l-.23.23h-.7l-.23.23h-1.16v-.23l.24-.23v-.22h0l.23-.23.23-.23h.46l.47-.22.69-.23h.46l.7-.23H178l.46.23h.69l.47.23H180v.22h0v-.22h.46l.23-.23h0V15h0v-.23h0v-.23h0l-.23-.22h0l-.23-.23v-.68l.23-.23v-.23h.7l-1.85-.68h-.7l-2.08.23-1.39-.23h-.23l-.23.23h-.46v.23h0l.23,1.59h1.39l1.15-.23,2.08-.23.24-1.59,1.85.68-1.85-.68,1.85.68.23-.22h.23v-.23h.23l.23-.23h.23V12l.23-.23h0v-.23h.23v-.22h0l-.23-.23h0v0l.23.23.24.22.23.23.23.23h.23l.23.22h.69V12h.23l.24-.23.23-.23h1.15l.23.23h0L187,12h0v.22h0v.23h0v.23l-.23.22h0l-.23.23h-.23l-.23.23h-.23v.22h-.93v-.22h-.69l-.23.22h-.23l-.23.23h-.23v.23l-.23.23-.24.22v.23l-.23.23v.9l-.23.23.23.23v.22h0v.23h0V17h0l.47.45.23.23.46.22.23.46v.23l.23.45v.45l.23.45v.23l-.23.46v.45l-.23.45v.23l-.23.23-.23.22v.23h-.23l-.23.23v.22h-.24v.68l.47.69.23.22v.23h.23L184,25h.46l.23.22h.23V25h.93l.23-.23h.69l.23-.23h.7l.46-.22.23.22h.7l.23.23h1.39l.23-.23h.23l.23-.22h.23l.23-.23h.23l.23-.23.24-.23.23-.45.23-.23v-.45l-.23-.45-.23-.23-.24-.46v-.45l-.23-.22V19.28l.47-3.17v-.23h.23v-.22l.23-.23.23-.23h.23l.23-.22h.23l.23-.23h0v-.23h0V14.3h0v-.23h0v-.23h-.46l-2.31,1.36L189.05,15h-1.16l-.23.22H186.5l-.23.23H186l-.46-.23h0l-.23.23h0l-.23.23h0v.22h0v.23h0l.23.23h.23v.22l.23.23H186l.23.23H187l3-.23v.68l-.23.23v.22h-.23l-.23.23h-1.39l-.23-.23H186v.23h0l-.23.23h0v.23h0v.22h0l.23.23h0v.22h0l.23.23,1.85-.23h1.62l-.46.46-.46.68-1.86.45-.46-.22H186v.22h-.23v.23h0v.22h0v.23h0l.23.23h0V22h.23v.22h.23l.23.23h.47v-.23h2.54L190,22h0l.23-.23h0l.23-.23h.24v-.23l.23-3.85-.23-.23.69-2,2.31-1.36Z"/><polygon class="be66c276-f2d0-4ac4-ad9a-fc4ceab9acfb" points="195.06 26.09 195.06 26.54 194.37 27.45 194.13 27.68 193.9 27.91 193.9 28.14 193.67 28.36 193.44 28.58 193.44 28.81 193.21 29.04 192.98 29.27 192.75 29.49 192.51 29.49 192.05 29.49 191.82 29.49 191.59 29.49 191.36 29.27 190.9 29.04 190.9 28.81 190.66 28.81 190.66 28.58 190.43 28.36 190.43 28.14 190.2 27.91 189.97 27.91 189.97 27.68 189.74 27.45 189.51 26.54 189.51 26.32 189.51 26.32 189.74 26.09 189.74 26.09 189.74 26.09 189.97 25.86 189.97 25.86 190.2 25.86 190.2 25.86 190.2 25.86 190.2 25.86 190.43 25.86 190.43 26.09 190.43 26.09 190.43 26.09 190.66 26.09 190.9 26.32 191.13 26.54 191.36 26.54 191.59 26.77 191.82 26.77 192.05 27 192.51 27 192.75 27 192.98 27 193.21 27 193.21 26.77 193.44 26.77 193.67 26.77 193.67 26.77 193.9 26.77 193.9 26.54 194.13 26.54 194.13 26.54 194.13 26.54 194.37 26.54 194.37 26.54 194.37 26.32 194.37 26.32 194.6 26.09 194.6 26.09 194.6 26.09 194.6 26.09 194.6 26.09 194.83 26.09 194.83 26.09 194.83 26.09 195.06 26.09 195.06 26.09"/><polygon class="bb1d8a6c-76ea-408d-9d4c-0aa0d8c9690f" points="72.28 5.22 72.28 5.68 72.28 6.13 72.04 6.36 71.81 6.81 71.58 7.04 71.35 7.26 71.12 7.72 70.89 7.94 70.66 7.94 70.19 8.17 69.73 8.17 69.27 7.94 69.04 7.94 68.58 7.72 68.34 7.49 68.11 7.26 67.88 7.26 67.88 7.26 67.88 7.26 67.88 7.26 67.88 7.26 67.88 7.26 67.88 7.26 67.88 7.26 67.65 7.26 67.65 7.26 67.65 7.26 67.42 7.26 67.42 7.49 67.42 7.49 67.42 7.72 67.19 7.72 67.42 7.72 67.42 7.94 67.42 7.94 67.42 7.94 67.42 7.94 67.42 7.94 67.42 7.94 67.42 7.94 67.42 8.85 67.42 9.76 67.42 10.44 67.42 11.35 67.42 12.03 67.42 12.93 67.42 13.61 67.42 14.52 67.42 14.75 67.42 14.98 67.19 15.2 67.19 15.43 67.19 15.66 66.96 15.88 66.73 15.88 66.5 16.11 66.26 15.88 66.03 15.88 66.03 15.88 65.8 15.66 65.8 15.66 65.57 15.43 65.57 15.2 65.57 15.2 65.57 14.98 65.57 11.35 65.57 11.35 65.57 11.35 65.57 11.35 65.57 11.35 65.57 11.12 65.57 11.12 65.57 11.12 65.57 11.12 65.57 11.12 65.57 10.89 65.57 10.89 65.57 10.89 65.57 10.67 65.34 10.67 65.34 10.67 65.11 10.67 65.11 10.67 65.11 10.67 64.88 10.67 64.88 10.89 64.88 10.89 64.65 10.89 64.65 10.89 64.65 10.89 64.18 11.35 63.95 11.57 63.49 11.8 63.03 11.8 62.56 12.03 62.1 12.25 61.64 12.25 61.18 12.25 61.18 12.25 61.18 12.25 61.18 12.25 61.18 12.25 61.18 12.25 60.95 12.25 60.95 12.25 60.95 12.25 60.95 12.25 60.71 12.25 60.71 12.25 60.48 12.25 60.48 12.25 60.25 12.25 60.25 12.48 60.25 12.48 60.02 12.48 59.79 12.48 59.56 12.48 59.33 12.48 59.09 12.48 58.87 12.25 58.63 12.25 58.4 12.03 58.17 12.48 58.4 12.71 58.4 12.71 58.4 12.93 58.63 12.93 58.63 12.93 58.63 13.16 58.63 13.16 58.63 13.39 58.63 13.61 58.63 13.61 58.4 13.84 58.4 14.07 58.4 14.3 58.17 14.3 57.94 14.52 57.94 14.52 57.71 14.52 57.48 14.75 57.48 14.75 57.25 14.52 57.02 14.52 57.02 14.3 56.78 14.3 56.78 14.07 56.78 13.84 56.78 13.84 56.78 13.84 57.02 13.84 57.02 13.61 57.02 13.61 57.02 13.61 57.02 13.61 57.25 11.8 57.02 11.8 56.78 11.8 56.55 11.8 56.32 11.57 56.09 11.57 55.86 11.57 55.63 11.57 55.4 11.57 55.4 11.57 55.4 11.57 55.16 11.57 55.16 11.57 55.16 11.57 55.16 11.57 55.16 11.57 54.93 11.57 55.16 10.44 55.16 10.44 55.4 10.44 55.4 10.44 55.4 10.44 55.63 10.44 55.63 10.44 55.63 10.44 55.63 10.21 55.86 10.21 55.86 10.21 56.09 10.21 56.09 9.98 56.32 9.98 56.55 9.98 56.55 9.98 56.78 9.98 56.78 9.98 56.78 9.98 57.02 9.98 57.02 9.76 57.02 9.76 57.02 9.76 57.02 9.53 57.02 9.53 57.02 9.53 57.02 9.3 57.02 9.3 57.02 9.3 56.78 9.08 56.78 9.08 56.78 9.08 56.55 9.08 56.55 9.08 56.55 9.08 56.55 9.08 56.55 9.08 56.32 9.08 56.32 9.08 56.32 9.08 56.32 9.08 56.09 9.3 55.86 9.3 55.63 9.3 55.4 9.53 55.4 9.53 55.16 9.53 54.93 9.53 54.7 9.53 54.7 8.4 54.7 8.4 54.93 8.4 54.93 8.4 54.93 8.4 55.16 8.4 55.16 8.17 55.4 8.17 55.4 8.17 55.63 8.17 55.63 8.17 55.63 8.17 55.63 8.17 55.63 8.17 55.86 8.17 55.86 8.17 55.86 8.17 56.09 8.17 56.32 8.17 56.32 8.17 56.55 8.17 56.78 8.17 56.78 7.94 57.02 7.94 57.25 7.94 57.25 7.94 57.25 7.94 57.25 7.94 57.25 7.94 57.25 7.72 57.25 7.72 57.25 7.72 57.25 7.72 57.25 7.49 57.25 7.49 57.25 7.49 57.25 7.26 57.25 7.26 57.02 7.26 57.02 7.26 56.78 7.04 55.63 7.26 54.93 7.26 55.16 5.68 55.4 5.68 55.63 5.68 55.86 5.68 55.86 5.68 56.32 5.68 56.55 5.68 56.78 5.68 57.02 5.9 57.02 5.68 57.02 5.68 57.25 5.68 57.25 5.68 57.25 5.45 57.25 5.45 57.25 5.45 57.25 5.22 57.25 5.22 57.25 4.99 57.25 4.99 57.02 4.77 57.02 4.77 57.02 4.77 56.78 4.77 56.55 4.77 55.4 4.54 55.63 3.63 55.86 3.86 56.09 3.86 56.32 3.86 56.55 3.86 56.55 3.86 56.78 3.86 57.02 3.86 57.25 3.86 57.25 4.09 57.48 4.09 57.48 4.09 57.71 4.09 57.71 4.09 57.71 4.09 57.94 4.09 57.94 4.09 58.17 4.09 58.17 4.09 58.17 4.09 58.4 4.09 58.4 4.09 58.63 4.09 58.63 3.86 58.63 3.86 58.87 3.86 58.87 3.86 59.09 3.63 59.33 3.63 59.33 3.86 59.56 3.86 59.56 3.86 59.79 4.09 60.02 4.09 60.02 4.31 60.02 4.31 60.02 4.54 60.25 4.54 60.25 4.54 60.25 4.77 60.25 4.77 60.25 4.77 60.25 4.99 60.02 5.22 59.79 5.45 59.79 5.45 59.56 5.68 59.33 5.9 59.33 6.13 59.09 6.36 59.09 6.58 58.87 6.81 58.87 7.04 58.87 7.26 58.63 7.49 58.63 7.94 58.63 8.17 58.63 8.4 58.63 8.62 58.63 8.62 58.63 8.85 58.63 9.08 58.87 9.08 58.87 9.3 58.87 9.3 58.87 9.53 58.87 9.53 59.09 9.53 59.09 9.53 59.09 9.76 59.09 9.76 59.33 9.76 59.33 9.76 59.33 9.76 59.33 9.76 59.56 9.76 59.56 9.76 59.56 9.53 59.79 9.53 59.79 9.53 59.79 9.3 59.79 9.3 59.79 10.21 59.79 10.21 59.79 10.44 60.02 10.67 60.02 10.67 60.02 10.67 60.25 10.89 60.48 10.89 60.48 10.89 60.48 10.89 60.71 10.89 60.71 10.89 60.71 10.89 60.71 10.89 60.71 10.89 60.71 10.89 60.71 10.89 61.41 10.89 61.87 10.67 62.56 10.67 63.03 10.44 63.49 10.21 63.95 9.98 64.41 9.76 65.11 9.3 65.11 9.3 65.34 9.08 65.34 9.08 65.57 8.85 65.57 8.62 65.57 8.4 65.8 8.17 65.8 7.94 65.57 7.94 65.57 7.72 65.57 7.49 65.57 7.49 65.57 7.26 65.34 7.26 65.34 7.04 65.11 7.04 64.65 7.04 63.95 7.04 63.26 7.26 62.8 7.26 62.1 7.26 61.41 7.49 60.71 7.49 60.02 7.49 60.02 7.26 60.02 7.04 60.02 6.81 60.25 6.36 60.48 6.13 60.71 5.9 60.95 5.9 61.18 5.9 61.18 5.9 61.41 5.9 61.41 5.9 61.41 5.9 61.41 5.9 61.64 5.9 61.64 5.9 61.64 5.9 64.65 5.68 65.34 4.99 65.57 4.77 65.8 3.86 65.57 3.63 65.57 3.41 65.57 3.18 65.57 2.95 65.8 2.95 65.8 2.73 66.03 2.73 66.03 2.73 67.19 2.73 67.42 2.73 67.42 2.73 67.65 2.95 67.88 2.95 67.88 3.18 68.11 3.41 68.11 3.41 68.11 3.63 68.11 3.86 68.11 3.86 68.11 4.09 68.11 4.09 68.11 4.31 67.88 4.31 67.88 4.54 67.88 4.54 67.65 5.45 67.65 5.45 67.65 5.45 67.65 5.45 67.65 5.45 67.65 5.45 67.65 5.68 67.65 5.68 67.65 5.68 67.65 5.68 67.65 5.68 67.65 5.68 67.65 5.9 67.88 5.9 67.88 5.9 67.88 5.9 67.88 5.9 67.88 5.9 67.88 5.9 68.11 5.9 68.11 5.9 68.11 5.9 68.11 5.9 68.11 5.68 68.11 5.68 68.34 5.68 68.58 5.68 68.81 5.68 68.81 5.68 69.04 5.68 69.27 5.68 69.27 5.68 69.5 5.68 69.73 5.9 69.73 5.68 69.96 5.68 70.19 5.68 70.19 5.68 70.43 5.68 70.66 5.68 70.66 5.68 70.89 5.68 70.89 5.68 70.89 5.68 71.12 5.68 71.12 5.68 71.12 5.68 71.12 5.68 71.12 5.68 71.12 5.68 71.35 5.68 71.58 5.68 71.58 5.45 71.81 5.45 72.04 5.45 72.04 5.45 72.28 5.45 72.28 5.22 72.28 5.22"/><polygon class="fb307146-6515-4dfb-94f3-6c24b77ef0a6" points="54.7 8.4 54.47 8.4 54.47 8.4 54.24 8.4 54.24 8.4 54.01 8.4 54.01 8.17 53.78 8.17 53.78 8.17 52.85 7.94 52.85 7.72 52.85 7.72 52.85 7.49 52.85 7.49 52.85 7.26 53.08 7.26 53.31 7.26 53.31 7.26 53.31 7.26 53.55 7.26 53.55 7.26 53.55 7.26 53.55 7.26 53.55 7.26 53.55 7.26 53.55 7.26 53.78 7.04 53.78 7.04 54.01 7.04 54.24 7.04 54.47 7.04 54.47 7.26 54.7 7.26 54.93 7.26 55.16 5.68 54.93 5.68 54.93 5.68 54.93 5.68 54.93 5.68 54.93 5.68 54.7 5.68 54.7 5.68 54.7 5.68 54.47 5.68 54.24 5.68 54.24 5.68 54.01 5.68 53.78 5.45 53.55 5.45 53.31 5.45 53.08 5.45 52.85 5.45 52.85 5.45 52.85 5.45 52.85 5.45 52.62 5.45 52.62 5.22 52.62 5.22 52.62 5.22 52.62 4.99 52.62 4.99 52.62 4.99 52.62 4.99 52.62 4.77 52.85 4.77 52.85 4.77 52.85 4.77 55.4 4.54 55.63 3.63 55.4 3.63 54.93 3.63 54.7 3.63 54.47 3.63 54.24 3.63 54.01 3.63 53.78 3.63 53.31 3.63 53.31 3.63 53.08 3.63 52.85 3.41 52.85 3.41 52.62 3.41 52.39 3.41 52.39 3.41 52.16 3.41 52.16 3.41 51.93 3.41 51.93 3.41 51.7 3.41 51.7 3.41 51.47 3.41 51.47 3.63 51.23 3.63 51.23 3.86 51 4.09 50.77 4.31 50.77 4.54 50.54 4.77 50.54 4.99 50.54 5.45 50.54 5.68 50.54 5.68 50.54 5.9 50.54 6.13 50.54 6.36 50.77 6.36 50.77 6.58 50.77 6.81 50.77 6.81 51 7.26 51 7.94 51.23 8.4 51.23 8.85 51.23 9.3 51.47 9.76 51.47 10.21 51.47 10.67 51.47 10.89 51.47 11.12 51.47 11.12 51.47 11.35 51.47 11.35 51.47 11.57 51.47 11.8 51.47 11.8 51.47 12.03 51.47 12.25 51.7 12.48 51.7 12.48 51.93 12.71 52.16 12.71 52.16 12.71 52.39 12.71 52.62 12.71 52.62 12.71 52.62 12.71 52.85 12.71 52.85 12.71 53.08 12.48 53.08 12.48 53.08 12.48 52.85 14.07 52.85 14.3 52.62 15.66 52.62 15.66 52.62 15.66 52.62 15.66 52.62 15.66 52.62 15.66 52.62 15.66 52.62 15.66 52.62 15.66 52.62 15.88 52.62 16.11 52.85 16.11 52.85 16.34 53.08 16.34 53.08 16.34 53.31 16.34 53.31 16.34 53.55 16.34 53.55 16.34 53.55 16.34 53.55 16.34 53.55 16.34 53.78 16.34 53.78 16.34 53.78 16.34 53.78 16.11 54.01 16.11 54.01 15.88 54.24 15.66 54.24 15.43 54.24 15.43 54.47 15.2 54.47 14.98 54.47 14.98 54.47 14.75 54.24 14.75 54.24 14.75 54.24 14.75 54.24 14.75 54.24 14.75 54.24 14.75 53.78 12.71 53.78 12.48 53.78 12.25 54.01 12.25 54.01 12.03 54.24 11.8 54.24 11.8 54.47 11.57 54.7 11.57 54.7 11.57 54.7 11.57 54.93 11.57 54.93 11.57 54.93 11.57 54.93 11.57 54.93 11.57 54.93 11.57 55.16 10.44 54.93 10.44 54.7 10.44 54.7 10.44 54.47 10.44 54.24 10.44 54.01 10.44 54.01 10.21 53.78 10.21 53.78 10.21 53.55 10.21 53.31 10.21 53.31 10.21 53.31 10.21 53.08 10.21 53.08 9.98 53.08 9.98 53.08 9.98 53.08 9.76 53.08 9.76 53.08 9.76 53.08 9.76 53.08 9.76 53.08 9.76 53.08 9.76 53.31 9.53 53.55 9.3 53.55 9.3 53.78 9.3 54.01 9.3 54.24 9.3 54.47 9.3 54.7 9.53 54.7 8.4 54.7 8.4"/><polygon class="bca20c18-a8ee-47bd-a90f-6129030d4e46" points="61.87 30.4 61.87 30.4 61.87 30.4 61.87 30.4 61.87 30.4 61.87 30.4 61.87 30.4 61.87 30.63 61.87 30.63 61.87 30.63 62.1 30.85 62.1 30.85 62.1 30.85 62.1 30.85 62.1 31.08 62.33 31.08 62.33 31.08 62.33 31.08 62.33 31.08 62.33 31.08 62.56 31.08 62.56 31.08 62.56 30.85 62.56 30.85 62.56 30.85 63.03 30.85 63.26 30.85 63.72 30.85 63.95 30.85 64.41 30.85 64.65 30.85 65.11 30.85 65.34 31.08 65.34 31.08 65.34 31.08 65.57 31.08 65.57 31.08 65.57 31.08 65.57 31.08 65.57 31.08 65.57 31.08 65.8 31.08 65.8 31.08 66.03 31.08 66.03 30.85 66.03 30.85 66.26 30.85 66.26 30.63 66.26 30.63 66.26 30.4 66.26 30.4 66.03 30.4 66.03 30.17 66.03 30.17 66.03 30.17 65.8 30.17 65.8 29.95 65.57 29.72 65.57 29.49 65.34 29.27 65.11 29.04 64.88 28.81 64.65 28.58 64.41 28.36 64.18 28.14 64.18 28.14 64.18 28.14 64.18 28.14 64.18 28.14 64.18 28.14 63.95 28.14 63.95 28.14 63.95 28.14 62.56 29.27 61.87 30.4 58.87 31.31 58.4 31.54 58.87 31.08 59.09 30.85 59.56 30.4 60.02 30.17 60.25 29.72 60.48 29.49 60.95 29.04 61.18 28.58 61.64 27.91 58.87 27.91 58.87 27.91 58.87 27.91 58.87 27.91 58.63 27.91 58.63 27.91 58.63 27.91 58.63 27.91 58.63 27.91 58.4 27.91 58.4 28.14 58.17 28.14 57.94 28.14 57.94 28.14 57.71 28.36 57.71 28.36 57.48 28.58 55.16 31.54 54.7 32.67 54.47 33.12 54.24 33.35 54.01 33.35 53.78 33.35 53.31 33.35 53.08 33.35 52.85 33.12 52.62 32.67 52.39 32.67 52.16 32.22 51.93 31.99 51.93 31.76 52.16 31.31 52.16 31.08 52.62 31.08 52.85 30.85 52.85 30.85 52.85 30.85 52.85 30.85 53.08 30.85 53.08 30.85 53.08 30.85 53.08 30.85 53.08 30.85 53.55 30.63 54.01 30.4 54.7 30.17 55.16 29.72 55.63 29.49 56.09 29.04 56.55 28.81 57.02 28.36 57.02 28.36 57.02 28.36 57.02 28.36 57.02 28.36 57.02 28.14 57.02 28.14 57.02 28.14 57.02 28.14 57.02 28.14 56.78 27.91 56.78 27.91 56.78 27.91 56.78 27.68 56.78 27.68 56.78 27.68 56.78 27.68 56.78 27 56.55 27 56.09 27.23 55.86 27.23 55.63 27.23 55.4 27.45 55.16 27.45 55.16 27.68 54.93 27.68 54.47 27.91 54.24 28.14 54.01 28.36 53.55 28.36 53.31 28.58 53.08 28.58 52.62 28.81 52.16 28.81 51.93 28.36 51.7 28.14 51.47 27.68 51.47 27.23 51.47 26.77 51.7 26.32 51.7 25.86 52.16 25.64 52.39 25.86 52.62 25.86 52.85 26.09 53.08 26.09 53.55 26.32 53.78 26.32 54.01 26.32 54.47 26.32 54.47 26.54 54.7 26.54 54.93 26.54 54.93 26.77 55.16 26.77 55.4 26.77 55.63 26.77 55.63 26.77 55.86 26.77 55.86 26.77 56.09 26.77 56.09 26.77 56.32 26.77 56.32 26.54 56.55 26.54 56.55 26.54 57.02 26.32 57.02 26.32 57.25 26.09 57.25 26.09 57.48 26.09 57.71 25.86 57.71 25.86 57.94 25.86 57.94 26.09 58.17 26.09 58.4 26.09 58.4 26.09 58.63 26.09 58.63 26.32 58.87 26.32 59.09 26.32 59.09 26.32 59.33 26.32 59.33 26.32 59.56 26.32 59.56 26.32 59.79 26.09 59.79 26.09 59.79 26.09 59.79 26.09 61.64 25.86 61.64 25.86 61.87 25.64 61.87 25.64 61.87 25.64 62.1 25.41 62.1 25.41 62.1 25.18 62.1 25.18 62.1 24.96 62.1 24.96 61.87 24.73 61.87 24.73 61.64 24.5 61.64 24.5 61.41 24.5 61.41 24.5 60.95 24.5 60.71 24.5 60.25 24.5 60.02 24.5 59.56 24.5 59.33 24.5 59.09 24.5 58.63 24.5 58.63 24.73 58.4 24.73 58.4 24.73 58.17 24.73 58.17 24.73 57.94 24.5 57.94 24.5 57.94 24.27 57.94 24.05 57.94 23.82 57.94 23.37 58.17 23.14 58.4 22.91 58.63 22.91 58.87 22.68 59.09 22.68 59.09 22.68 59.33 22.68 59.33 22.68 59.33 22.68 59.33 22.68 59.33 22.68 59.33 22.68 59.33 22.68 59.56 22.68 59.79 22.91 59.79 22.91 60.02 22.91 60.25 22.91 60.25 22.91 60.48 22.91 60.48 22.91 60.71 22.91 60.95 22.91 60.95 22.91 61.18 22.91 61.41 22.91 61.41 22.68 61.64 22.68 61.64 22.68 61.64 22.46 61.87 22.23 61.87 22.01 62.1 21.78 62.1 21.55 62.33 21.55 62.56 21.32 62.56 21.32 63.03 21.1 63.49 21.1 63.95 21.32 64.18 21.55 64.41 21.78 64.65 22.01 64.88 22.23 64.88 22.68 64.88 22.68 64.88 22.68 64.88 22.68 64.88 22.91 64.88 22.91 64.88 22.91 64.88 22.91 64.88 22.91 65.34 22.91 65.8 22.68 66.26 22.68 66.73 22.68 67.19 22.68 67.65 22.68 67.88 22.68 68.34 22.68 68.58 22.68 68.81 22.91 69.04 22.91 69.27 23.14 69.27 23.14 69.5 23.37 69.5 23.59 69.5 23.82 69.5 23.82 69.5 24.05 69.5 24.05 69.27 24.05 69.27 24.27 69.27 24.27 69.27 24.5 69.04 24.5 68.81 24.5 68.58 24.5 68.34 24.27 68.11 24.27 67.88 24.27 67.65 24.27 67.42 24.27 67.19 24.5 66.96 24.5 66.73 24.5 66.5 24.5 66.26 24.5 66.03 24.5 65.8 24.5 65.57 24.5 65.34 24.5 65.11 24.73 65.11 24.73 64.88 24.73 64.88 24.96 64.88 24.96 64.65 25.18 64.65 25.18 64.65 25.41 64.65 25.41 64.88 25.64 64.88 25.64 64.88 25.86 65.11 25.86 65.11 26.09 65.34 26.09 65.57 26.09 65.57 26.09 65.57 26.09 65.57 26.09 65.57 26.09 65.57 26.09 65.57 26.09 65.57 26.09 65.57 26.09 66.26 26.09 66.73 26.09 67.42 26.09 67.88 26.09 68.58 26.09 69.04 26.09 69.5 26.09 70.19 26.09 70.19 26.09 70.43 26.09 70.66 26.09 70.89 26.09 70.89 26.09 71.12 26.09 71.35 25.86 71.35 25.86 71.58 25.86 71.81 25.86 72.04 25.86 72.28 25.86 72.51 25.86 72.74 25.86 72.97 25.86 73.2 26.09 72.04 27.91 71.81 27.91 71.81 27.91 71.58 28.14 71.35 28.14 71.12 28.14 71.12 28.14 70.89 28.14 70.66 27.91 70.19 27.91 69.96 27.91 69.5 27.68 69.04 27.68 68.81 27.68 68.34 27.68 67.88 27.68 67.65 27.68 67.65 27.68 67.65 27.68 67.65 27.68 67.65 27.68 67.42 27.68 67.42 27.68 67.42 27.68 67.42 27.68 67.42 27.68 67.19 27.91 67.19 27.91 66.96 27.91 66.96 28.14 66.96 28.14 66.96 28.36 66.96 28.36 66.96 28.36 66.96 28.58 66.96 28.58 66.96 28.58 66.96 28.58 66.96 28.58 66.96 28.58 66.96 28.58 67.19 28.81 67.65 29.04 67.88 29.49 68.11 29.72 68.34 29.95 68.58 30.4 68.81 30.63 68.81 31.08 68.81 31.08 69.04 31.31 69.04 31.31 69.04 31.54 69.04 31.54 69.04 31.54 69.04 31.76 69.04 31.76 69.04 31.99 69.04 32.22 69.04 32.44 68.81 32.44 68.81 32.67 68.58 32.9 68.34 32.9 68.11 33.12 66.26 33.12 65.8 32.9 65.57 32.67 65.11 32.67 64.65 32.67 64.41 32.67 63.95 32.67 63.49 32.67 63.03 32.67 63.03 32.67 63.03 32.67 63.03 32.67 63.03 32.67 63.03 32.67 63.03 32.67 63.03 32.67 63.03 32.67 62.56 32.67 62.33 32.67 61.87 32.9 61.64 32.9 61.18 33.12 60.95 33.12 60.48 33.35 60.25 33.57 60.02 33.57 59.79 33.8 59.56 33.8 59.33 33.8 59.09 33.8 58.87 33.57 58.63 33.57 58.63 33.35 58.4 31.54 61.87 30.4 61.87 30.4"/><polygon class="b5e9dbc7-47a3-40e4-ba4b-7531b5b9c850" points="54.24 22.01 54.24 22.01 54.24 22.01 54.24 21.78 54.24 21.78 54.01 21.55 54.01 21.55 53.78 21.55 53.78 21.55 53.78 21.55 53.55 21.55 53.55 21.55 53.55 21.55 53.55 21.78 53.31 21.78 53.31 21.78 53.31 21.78 53.31 22.01 53.08 22.01 53.08 22.23 53.08 22.46 52.85 22.46 52.85 22.68 52.85 22.68 52.85 22.91 52.85 22.91 52.85 22.91 52.85 22.91 52.85 22.91 52.85 22.91 52.85 22.91 52.85 22.91 52.85 22.91 52.85 23.14 52.85 23.14 52.85 23.14 52.85 23.37 52.85 23.37 52.85 23.37 52.85 23.59 52.85 23.59 52.85 23.82 52.85 23.82 52.85 24.05 53.08 24.05 53.08 24.27 53.08 24.27 53.31 24.5 53.31 24.5 54.24 24.5 57.02 24.05 54.93 22.91 54.93 22.68 54.93 22.68 54.7 22.46 54.7 22.46 54.7 22.23 54.47 22.23 54.47 22.23 54.24 22.01 54.24 22.01"/><polygon class="a254e200-59b4-4b7e-9a52-9f7aac66ce08" points="85.69 13.39 81.06 15.43 81.06 15.43 81.06 15.43 81.06 15.43 81.06 15.43 81.06 15.43 81.06 15.43 80.83 15.43 80.83 15.43 80.6 15.43 80.37 15.43 80.37 15.43 80.14 15.66 79.91 15.66 79.91 15.88 79.91 16.11 79.67 16.11 79.67 16.34 79.44 16.56 79.21 16.79 78.98 16.79 78.75 16.79 78.52 16.79 78.29 16.79 78.06 16.79 78.06 16.79 77.83 16.56 77.83 16.34 77.59 16.11 77.59 15.88 77.59 15.43 77.59 15.2 77.59 14.98 77.83 14.07 77.59 8.17 77.59 8.17 77.59 7.94 77.59 7.94 77.59 7.72 77.59 7.49 77.59 7.49 77.59 7.26 77.59 7.26 77.36 6.81 77.13 6.58 77.13 6.13 77.13 5.68 77.13 5.22 77.13 4.77 77.13 4.31 77.36 4.09 77.13 3.63 77.36 3.41 77.36 3.18 77.59 2.95 77.59 2.95 77.83 2.73 78.06 2.73 78.29 2.73 78.52 2.73 78.52 2.73 78.75 2.73 78.75 2.73 78.98 2.73 78.98 2.73 78.98 2.95 79.21 2.95 79.44 2.95 79.67 3.18 79.91 3.18 80.14 3.18 80.37 3.18 80.6 3.18 80.83 3.18 81.06 3.18 81.06 3.18 81.06 3.18 81.06 3.18 81.06 3.18 81.06 3.18 81.29 3.18 81.29 3.18 81.29 3.18 80.6 3.86 80.6 3.86 80.6 3.86 80.6 3.86 80.6 3.86 80.6 3.86 80.6 3.86 80.6 3.86 80.37 3.86 80.14 3.86 79.91 4.09 79.67 4.09 79.44 4.31 79.21 4.54 78.98 4.77 78.98 4.99 78.75 5.45 79.21 13.61 79.21 13.61 79.21 13.61 79.21 13.84 79.44 13.84 79.44 14.07 79.67 14.07 79.67 14.07 79.91 14.07 79.91 14.07 79.91 14.07 79.91 14.07 79.91 14.07 79.91 14.07 79.91 14.07 79.91 14.07 79.91 14.07 80.83 13.84 81.53 13.84 82.22 13.61 82.91 13.61 83.61 13.39 84.3 13.39 84.99 13.39 85.69 13.39 85.69 13.39"/><polygon class="bc1ad85c-7ce3-4605-9089-cbe7b779901e" points="87.77 9.76 88.92 10.67 89.16 10.67 89.16 10.67 89.39 10.67 89.62 10.67 89.62 10.67 89.85 10.67 90.08 10.89 90.08 10.89 90.08 10.89 90.31 10.89 90.31 10.89 90.31 10.89 90.31 10.89 90.31 10.89 90.54 10.89 90.54 10.89 90.54 10.89 90.78 10.89 90.78 10.89 91.01 10.89 91.01 10.89 91.24 10.67 91.24 10.67 91.24 10.67 91.24 13.61 91.24 13.61 91.24 13.61 91.24 13.84 91.01 13.84 91.01 13.84 91.01 13.84 90.78 14.07 90.78 14.07 90.78 14.07 90.78 14.07 90.78 14.07 90.78 14.07 90.54 14.07 90.54 14.07 90.54 14.07 90.54 14.07 90.08 13.84 89.85 13.84 89.39 13.84 89.16 13.84 88.92 13.61 88.46 13.61 88.23 13.39 87.77 13.39 90.31 15.66 90.54 15.66 90.54 15.66 90.54 15.66 90.54 15.66 90.54 15.66 90.54 15.66 90.54 15.66 90.78 15.66 90.78 15.66 90.78 15.66 90.78 15.66 90.78 15.66 90.78 15.66 91.01 15.66 91.01 15.66 91.01 15.66 91.01 15.88 91.24 15.88 91.24 16.11 91.47 16.34 91.7 16.34 91.7 16.56 91.93 16.56 92.16 16.56 92.39 16.56 92.62 16.56 92.62 16.34 92.86 16.11 93.09 15.88 93.09 15.66 93.09 15.43 93.09 15.2 93.09 15.2 93.09 15.2 93.09 15.2 93.09 15.2 93.09 15.2 93.09 14.98 93.09 14.98 93.09 14.98 93.32 13.84 93.32 12.71 93.32 11.57 93.32 10.44 93.32 9.3 93.32 8.17 93.32 7.04 93.32 5.9 93.32 5.9 93.32 5.68 93.32 5.45 93.32 5.45 93.32 5.22 93.55 4.99 93.78 4.77 93.78 4.77 93.78 4.54 93.78 4.31 93.55 4.09 93.55 3.86 93.32 3.86 93.09 3.63 92.86 3.63 92.86 3.41 92.62 3.41 92.62 3.41 92.62 3.41 92.62 3.41 92.39 3.41 92.39 3.41 92.39 3.41 92.39 3.41 92.16 3.41 92.16 3.41 91.93 3.63 91.93 3.63 91.7 3.63 91.7 3.63 91.47 3.86 91.47 3.86 91.47 4.77 91.47 6.13 91.7 7.72 91.24 8.62 91.01 9.76 88.92 9.76 89.16 9.3 89.16 9.08 89.16 8.62 89.39 8.17 89.62 7.94 89.85 7.49 90.31 7.26 90.54 7.04 90.54 6.58 89.85 6.13 89.39 6.13 88.92 6.13 88.69 6.13 88.23 5.9 87.77 5.9 87.54 5.9 87.08 5.9 86.61 5.9 86.61 5.9 86.61 5.9 86.38 5.9 86.38 6.13 86.15 6.13 86.15 6.13 86.15 6.13 85.92 6.13 86.15 6.58 88.23 6.81 88.92 7.26 88 8.4 88 9.3 87.77 9.76 87.77 9.76"/><polygon class="e15a987c-aca8-4819-99ca-51bf40497f3b" points="91.47 3.86 91.47 4.77 91.24 4.77 91.01 4.77 90.78 4.54 90.54 4.54 90.31 4.54 90.08 4.54 89.85 4.31 89.62 4.31 86.38 4.09 86.38 4.09 86.38 4.09 86.38 4.09 86.15 4.09 86.15 3.86 86.15 3.86 86.15 3.86 86.15 3.86 85.92 4.09 85.92 4.09 85.69 4.09 85.69 4.09 85.69 4.31 85.69 4.31 85.69 4.54 85.69 4.54 85.69 4.54 85.69 4.77 85.69 4.77 85.69 4.77 85.92 4.77 85.92 4.99 85.92 4.99 86.15 4.99 86.15 4.99 86.15 4.99 86.15 4.99 86.15 4.99 86.15 4.99 86.38 4.99 86.38 4.99 86.38 4.99 89.39 4.77 89.39 5.68 87.08 5.45 86.61 5.45 85.92 5.45 85.92 6.13 86.15 6.58 85.92 7.04 87.31 7.04 87.31 7.04 87.31 7.04 87.54 7.04 87.54 7.26 87.54 7.26 87.54 7.26 87.54 7.26 87.54 7.26 87.54 7.49 87.54 7.49 87.54 7.49 87.31 7.49 87.31 7.49 87.31 7.72 87.31 7.72 87.31 7.72 85.92 7.49 85.92 7.49 85.92 7.49 85.69 7.72 85.69 7.72 85.69 7.72 85.69 7.94 85.69 7.94 85.69 7.94 85.69 8.17 85.69 8.17 85.69 8.4 85.69 8.4 85.69 8.4 85.92 8.62 85.92 8.62 86.15 8.62 88 8.4 88 9.3 87.08 9.3 85.69 9.08 85.46 9.76 87.77 9.76 88.92 10.67 88.69 10.67 88.69 10.89 88.69 10.89 88.46 10.89 88.46 11.12 88.46 11.12 88.46 11.35 88.46 11.35 88.46 12.71 87.77 13.39 90.31 15.66 90.08 15.66 89.85 15.43 89.62 15.43 89.39 15.2 89.16 15.2 88.92 15.2 88.69 14.98 88.23 14.98 88.23 14.98 88.23 14.98 88.23 14.98 88.23 14.98 88.23 14.98 88.23 14.98 88.23 14.98 88.23 14.98 87.77 14.98 87.31 14.98 86.84 14.98 86.38 14.98 85.92 14.98 85.46 14.98 84.76 14.98 84.3 14.98 84.07 14.98 83.61 14.98 83.14 14.98 82.68 14.98 82.45 14.98 81.99 15.2 81.53 15.2 81.06 15.2 85.69 13.39 85.92 13.16 85.92 13.16 86.15 13.16 86.15 12.93 86.38 12.93 86.38 12.93 86.61 12.71 86.61 12.71 87.54 11.57 87.54 11.57 87.54 11.57 87.54 11.35 87.54 11.35 87.54 11.35 87.54 11.35 87.54 11.35 87.54 11.12 87.54 11.12 87.54 11.12 87.54 11.12 87.54 11.12 87.54 10.89 87.31 10.89 87.31 10.89 87.31 10.89 87.31 10.89 87.31 10.89 87.31 10.89 87.31 10.89 87.31 10.89 87.08 10.89 87.08 10.89 87.08 10.89 87.08 10.89 86.84 10.89 86.61 10.89 86.61 10.67 86.38 10.67 86.15 10.67 85.92 10.67 85.92 10.67 85.69 10.67 85.69 10.67 85.46 10.67 85.46 10.67 85.23 10.67 85.23 10.89 84.99 10.89 84.99 10.89 84.76 10.89 84.53 11.12 84.53 11.12 84.3 11.12 84.07 11.12 83.84 11.12 83.84 11.12 83.61 10.89 83.14 10.89 82.91 11.12 82.68 11.12 82.45 11.12 81.99 11.35 81.76 11.35 81.53 11.57 81.29 11.8 81.06 11.8 80.83 11.8 80.6 11.8 80.37 11.57 80.14 11.57 80.14 11.35 80.14 11.12 79.91 10.89 79.91 10.89 79.91 10.89 79.91 10.67 79.91 10.67 79.91 10.67 80.14 10.67 80.14 10.44 80.14 10.44 80.14 10.44 80.37 10.44 80.37 10.44 80.6 10.44 80.6 10.44 80.83 10.44 80.83 10.44 80.83 10.44 81.29 10.44 81.53 10.44 81.76 10.44 82.22 10.44 82.45 10.21 82.91 10.21 83.14 10.21 83.37 9.98 83.61 9.98 83.61 9.98 83.61 9.98 83.84 9.98 83.84 9.98 83.84 9.76 83.84 9.76 83.84 9.53 83.84 9.53 83.84 9.53 83.84 9.53 83.84 9.3 83.84 9.3 83.84 9.3 83.84 9.3 83.84 9.3 83.61 8.4 84.07 7.94 83.14 7.72 82.91 7.72 82.91 7.72 82.91 7.49 82.91 7.49 82.68 7.26 82.68 7.26 82.91 7.26 82.91 7.04 84.07 7.04 83.84 6.58 83.37 6.13 83.37 6.13 83.37 6.13 83.37 6.13 83.37 6.13 83.37 6.13 83.37 6.13 83.37 6.13 83.37 6.13 83.61 6.13 83.61 6.13 83.61 6.13 83.84 6.13 83.84 6.13 83.84 5.9 83.84 5.9 83.84 5.68 83.84 5.68 83.84 5.68 83.84 5.68 83.84 5.68 83.84 5.45 83.61 5.45 83.61 5.45 83.61 5.45 82.45 5.45 82.22 5.68 81.99 5.68 81.99 5.68 81.76 5.68 81.53 5.68 81.53 5.45 81.53 5.22 81.29 5.22 81.53 4.99 81.53 4.77 81.76 4.77 81.76 4.77 81.99 4.77 82.22 4.77 82.22 4.77 82.45 4.77 83.84 4.77 84.07 4.31 83.61 4.09 83.37 4.09 82.91 4.09 82.68 3.86 82.22 3.86 81.99 3.86 81.53 3.86 81.29 3.86 81.06 3.86 81.06 3.86 81.06 3.86 81.06 3.86 80.83 3.86 80.83 3.86 80.83 3.86 80.83 3.86 81.29 3.18 81.99 3.18 82.91 3.18 83.84 3.18 84.53 3.18 85.46 3.18 86.15 3.18 87.08 3.18 87.77 3.18 88 3.18 88 3.18 88.23 3.41 88.46 3.41 88.69 3.41 88.92 3.41 89.16 3.41 89.39 3.63 89.62 3.63 89.85 3.63 89.85 3.86 90.08 3.86 90.31 3.86 90.54 3.86 90.78 3.86 91.01 3.86 91.01 3.86 91.24 3.86 91.24 3.86 91.24 3.86 91.24 3.86 91.24 3.86 91.47 3.86 91.47 3.86 91.47 3.86"/><polygon class="b6c627d6-f084-4644-abcf-9dbf2b4b3ec5" points="83.14 6.58 82.22 6.81 81.76 7.04 81.53 7.04 81.53 7.49 81.76 8.85 83.61 8.4 83.84 9.3 83.61 9.3 83.61 9.3 83.61 9.3 83.61 9.3 83.37 9.3 83.37 9.3 83.37 9.3 83.37 9.3 83.14 9.3 83.14 9.3 82.91 9.3 82.68 9.3 82.68 9.3 82.45 9.3 82.45 9.3 82.22 9.3 81.53 9.76 81.53 9.76 81.29 9.76 81.29 9.76 81.06 9.76 81.06 9.53 81.06 9.53 81.06 9.3 81.06 9.3 81.06 9.3 81.06 9.3 81.06 9.3 81.06 9.3 81.06 9.3 81.06 9.08 81.06 9.08 81.06 9.08 80.83 7.49 80.37 6.81 80.37 6.58 80.37 6.58 80.37 6.36 80.37 6.36 80.37 6.36 80.6 6.13 80.6 6.13 80.83 6.13 80.83 6.13 80.83 6.13 80.83 6.13 80.83 6.13 81.06 6.13 81.06 6.13 81.06 6.13 81.06 6.13 81.06 6.13 81.29 6.13 81.29 6.13 81.29 6.13 81.53 6.13 81.53 6.36 81.53 6.36 81.76 6.36 81.76 6.36 81.76 6.36 81.76 6.36 81.76 6.36 81.76 6.36 81.99 6.36 81.99 6.36 81.99 6.36 83.37 6.13 83.84 6.58 83.14 6.58 83.14 6.58"/><polygon class="a9571be7-b7df-432e-b214-42babeb40b3a" points="84.07 12.71 83.84 12.93 83.61 12.93 83.61 12.93 83.37 12.93 83.14 12.71 83.14 12.71 82.91 12.48 82.91 12.48 82.91 12.25 82.91 12.25 82.91 12.03 82.91 12.03 82.91 12.03 82.91 12.03 83.14 11.8 83.14 11.8 83.14 11.8 83.14 11.8 83.37 11.8 83.37 11.8 83.37 11.8 83.37 11.8 83.37 11.8 83.61 11.8 83.61 11.8 83.84 11.8 84.07 11.8 84.07 11.8 84.3 11.8 84.3 11.8 84.53 11.57 84.76 11.57 84.76 11.57 84.07 12.71 84.07 12.71"/><polygon class="bfed4aa8-5b05-4abb-825f-785d9cfe8083" points="82.68 24.5 82.68 24.73 82.91 24.96 82.91 25.18 83.14 25.41 83.14 25.64 83.14 25.86 83.14 26.09 83.14 26.32 83.14 26.54 83.14 26.77 83.14 27 83.14 27.45 82.91 27.68 82.91 27.91 82.68 28.14 82.45 28.36 82.22 28.58 81.99 29.04 81.53 29.27 81.06 29.72 80.6 29.95 80.14 30.17 79.67 30.4 79.21 30.4 78.98 30.4 78.75 30.4 78.52 30.4 78.29 30.4 78.06 30.4 77.83 30.4 77.36 30.4 77.13 30.17 77.13 29.72 77.13 29.49 76.9 29.72 76.67 29.95 76.44 30.17 76.21 30.4 76.21 30.63 75.97 30.85 75.97 31.31 75.97 31.54 76.21 31.76 76.44 31.99 76.67 32.22 76.9 32.44 77.13 32.67 77.59 32.67 77.83 32.67 78.06 32.67 78.29 32.67 78.29 32.67 78.52 32.67 78.52 32.67 78.75 32.67 78.75 32.67 78.98 32.67 78.98 32.67 80.37 31.99 80.6 31.99 81.06 31.76 81.29 31.76 81.53 31.54 81.76 31.31 81.99 31.31 82.22 31.08 82.45 30.85 83.37 29.04 84.76 27 84.99 27 88.69 29.72 88.92 29.95 89.16 30.17 89.39 30.4 89.62 30.63 89.85 30.63 90.08 30.85 90.31 30.85 90.54 30.85 90.78 31.08 91.24 31.31 91.47 31.54 91.7 31.76 91.93 31.99 92.16 32.44 92.39 32.67 92.62 32.9 92.86 33.12 92.86 33.35 93.09 33.35 93.09 33.57 93.32 33.57 93.55 33.57 93.78 33.57 94.01 33.57 94.24 33.57 94.24 33.57 94.47 33.57 94.71 33.57 94.71 33.35 94.94 33.35 94.94 33.12 94.94 33.12 95.4 32.67 95.63 32.44 96.09 31.99 96.32 31.76 96.79 31.31 97.02 31.08 97.48 30.63 97.71 30.17 97.25 30.17 97.02 30.17 96.55 30.17 96.32 30.17 95.86 30.17 95.4 30.17 95.17 30.17 94.71 30.17 94.71 30.17 94.47 30.17 94.47 30.17 94.24 30.17 94.24 30.17 94.01 30.17 94.01 30.17 93.78 30.17 92.62 29.95 91.7 29.49 90.54 28.81 89.62 28.36 88.69 27.45 87.77 26.77 87.08 25.86 86.38 24.96 86.38 24.73 86.38 24.73 86.38 24.73 86.38 24.73 86.38 24.73 86.38 24.73 86.38 24.73 86.38 24.5 86.38 24.27 86.15 23.82 85.92 23.37 85.69 23.14 85.46 22.91 84.99 22.68 84.53 22.68 84.3 22.68 84.07 22.68 84.07 22.68 84.07 22.68 84.07 22.68 83.84 22.68 83.84 22.68 83.84 22.68 83.84 22.68 83.61 22.68 83.37 22.91 83.14 22.91 83.14 23.14 82.91 23.37 82.91 23.59 82.91 23.82 82.91 24.05 82.91 24.05 82.91 24.05 82.91 24.05 82.91 24.05 82.91 24.05 82.91 24.05 82.91 24.05 82.91 24.05 82.68 24.5 82.68 24.5"/><polygon class="e2d946f3-7f20-4250-821d-5c3e7c66c1d2" points="211.01 6.13 208.93 6.81 208.47 7.04 208.24 7.26 208.01 7.49 207.78 7.94 207.54 8.17 207.31 8.62 207.31 9.08 207.08 9.53 207.08 9.53 207.08 9.53 207.08 9.53 207.08 9.53 207.08 9.76 207.08 9.76 207.08 9.76 207.08 9.76 207.08 9.98 207.31 10.44 207.54 10.67 207.54 10.89 208.01 10.89 208.24 11.12 208.47 11.12 208.7 11.12 210.09 11.12 210.32 10.89 210.55 10.44 211.01 10.21 211.48 10.21 211.71 9.98 212.17 9.76 212.63 9.76 213.09 9.76 213.33 9.76 213.56 9.76 213.79 9.76 214.02 9.98 214.25 9.98 214.48 10.21 214.71 10.21 214.94 10.44 214.94 10.44 215.18 10.44 215.18 10.67 215.18 10.67 215.18 10.67 215.18 10.89 215.18 10.89 215.18 11.12 215.18 11.12 215.18 11.12 215.18 11.35 215.18 11.35 215.18 11.35 215.18 11.35 215.18 11.57 215.18 11.57 214.94 11.57 214.94 11.8 214.94 11.8 214.94 12.03 214.71 12.03 214.71 12.03 214.71 12.25 214.48 12.25 211.71 12.71 211.71 12.93 211.48 12.93 211.48 12.93 211.24 12.93 211.01 12.71 211.01 12.71 210.78 12.71 210.55 12.71 209.86 12.48 208.7 12.25 207.78 12.93 207.08 13.61 207.08 14.3 208.47 16.11 208.47 16.11 208.47 16.11 208.47 16.11 208.47 16.11 208.47 16.34 208.47 16.34 208.47 16.34 208.47 16.34 208.47 16.34 208.47 16.56 208.24 16.56 208.24 16.79 208.24 16.79 208.24 17.02 208.01 17.02 208.01 17.02 208.01 17.24 207.78 17.24 207.78 17.24 207.78 17.47 207.78 17.47 207.78 17.47 207.78 17.7 207.78 17.7 207.78 17.92 207.78 17.92 207.78 17.92 207.78 17.92 207.78 18.15 207.78 18.15 207.78 18.15 207.78 18.15 208.01 18.38 208.01 18.61 208.01 18.61 208.01 18.83 208.01 19.06 208.01 19.28 208.01 19.28 208.01 19.51 208.01 19.96 208.01 20.65 208.01 21.1 207.78 21.55 207.78 22.23 207.54 22.68 207.31 23.14 207.08 23.59 206.62 24.05 206.39 24.27 205.93 24.5 205.69 24.73 205.23 25.18 204.77 25.18 204.31 25.41 203.85 25.64 203.85 27 203.85 27.45 204.08 27.68 204.31 27.91 204.54 28.14 204.77 28.36 205.23 28.58 205.46 28.58 205.69 28.81 205.93 28.81 205.93 28.81 206.16 28.81 206.16 29.04 206.39 29.04 206.39 29.04 206.62 29.04 206.62 29.04 206.85 29.04 207.08 28.81 207.31 28.81 207.54 28.58 207.78 28.58 208.01 28.36 208.01 28.14 208.01 27.91 208.24 27.45 208.24 27.23 208.47 26.77 208.47 26.54 208.47 26.09 208.7 25.64 208.7 25.41 208.93 24.96 209.16 24.5 209.16 24.05 209.4 23.59 209.4 22.91 209.63 22.46 209.63 22.01 209.63 21.32 209.63 20.87 209.63 20.65 209.63 20.65 209.63 20.42 209.63 20.19 209.63 20.19 209.4 19.96 209.4 19.74 209.4 19.51 209.4 19.28 209.63 19.06 209.86 18.83 209.86 18.61 210.09 18.61 210.32 18.38 210.78 18.38 211.01 18.15 212.63 18.15 214.71 18.15 215.41 17.92 216.33 17.92 216.33 17.92 216.56 17.92 216.56 17.92 216.56 17.7 216.79 17.7 216.79 17.7 216.79 17.47 216.79 17.24 217.26 16.34 217.26 16.34 217.26 16.34 217.26 16.34 217.26 16.34 217.26 16.34 217.26 16.34 217.26 16.34 217.26 16.11 217.26 16.11 217.26 16.11 217.26 16.11 217.03 15.88 217.03 15.88 217.03 15.88 217.03 15.88 216.79 15.88 216.79 15.66 216.56 15.43 216.56 15.2 216.33 14.98 216.33 14.75 216.33 14.52 216.33 14.3 216.56 13.84 214.71 14.07 211.48 13.84 211.01 14.07 210.78 14.07 210.55 14.3 210.32 14.52 210.09 14.75 210.09 14.98 209.86 15.2 209.86 15.43 209.86 16.79 210.09 16.56 210.32 16.56 210.55 16.56 210.78 16.34 211.01 16.34 211.24 16.34 211.48 16.34 211.71 16.34 212.17 16.34 212.63 16.11 213.09 16.11 213.33 15.88 213.79 15.88 214.02 15.66 214.48 15.66 214.71 15.43 214.71 14.07 216.56 13.84 216.79 12.48 216.79 12.03 217.03 11.57 217.26 11.35 217.49 10.89 217.95 10.67 218.18 10.44 218.65 10.21 219.11 9.98 219.11 9.76 219.34 9.76 219.57 9.53 219.57 9.3 219.8 9.08 219.8 8.85 219.8 8.62 219.8 8.4 219.8 8.17 219.8 7.94 219.57 7.72 219.57 7.26 219.34 7.04 219.11 7.04 218.87 6.81 218.41 6.58 217.95 6.58 217.49 6.58 217.03 6.58 216.56 6.58 215.87 6.58 215.18 6.58 214.48 6.58 214.02 6.58 213.33 6.81 212.86 6.81 212.63 6.81 212.4 6.81 211.94 6.58 211.71 6.58 211.48 6.36 211.48 6.13 211.48 6.13 211.48 6.13 211.24 6.13 211.24 6.13 211.24 6.13 211.24 6.13 211.24 6.13 211.01 6.13 211.01 6.13"/><polygon class="ef72f898-aed6-4714-9c87-dbaf0124ddcc" points="228.35 11.35 228.12 11.35 227.89 11.35 227.66 11.35 227.43 11.35 227.2 11.35 226.74 11.35 226.51 11.35 226.28 11.35 226.04 11.35 226.04 11.35 225.81 11.35 225.58 11.35 225.35 11.35 225.12 11.35 224.89 11.57 224.66 11.57 224.66 11.35 224.43 11.35 224.19 11.35 223.96 11.12 223.73 10.89 223.73 10.67 223.5 10.44 223.5 10.21 223.27 8.62 223.27 8.4 223.04 8.17 223.04 8.17 222.81 7.94 222.58 7.94 222.34 7.72 222.11 7.72 222.11 7.72 221.65 7.72 221.42 7.94 221.19 7.94 220.96 8.17 220.73 8.4 220.73 8.62 220.73 8.85 220.49 9.08 220.73 10.44 220.73 10.67 220.96 10.89 221.19 11.12 221.19 11.35 221.19 11.57 221.42 12.03 221.42 12.25 221.42 12.48 221.42 12.71 221.42 13.16 221.19 13.39 221.19 13.84 220.96 14.07 220.96 14.3 220.73 14.75 220.49 14.98 220.49 14.98 220.49 14.98 220.49 14.98 220.49 14.98 220.49 14.98 220.49 14.98 220.49 14.98 220.26 14.98 220.26 14.98 220.03 14.98 220.03 14.98 220.03 15.2 219.8 15.2 219.8 15.2 219.8 15.43 219.8 15.43 219.8 15.66 219.8 15.66 219.8 15.66 219.8 15.66 219.8 15.66 219.8 15.66 219.8 15.66 219.8 15.66 219.8 17.02 219.8 17.02 220.03 17.24 220.03 17.47 220.26 17.47 220.26 17.47 220.49 17.7 220.49 17.7 220.73 17.7 220.96 17.7 220.96 17.7 220.96 17.47 221.19 17.47 221.19 17.47 221.19 17.47 221.19 17.24 221.42 17.24 221.65 17.02 222.11 17.02 222.58 17.02 223.04 16.79 223.27 16.79 223.73 16.56 224.19 16.56 224.43 16.56 224.89 16.34 225.12 16.34 225.58 16.34 225.81 16.34 226.28 16.34 226.74 16.34 226.97 16.34 227.43 16.34 227.43 16.56 227.43 16.56 227.66 16.56 227.66 16.56 227.66 16.56 227.66 16.56 227.66 16.79 227.66 16.79 227.66 16.79 227.66 16.79 227.66 16.79 227.66 16.79 227.66 17.02 227.66 17.02 227.66 17.02 227.66 17.02 227.66 20.19 227.89 20.42 227.89 20.87 227.89 21.1 228.12 21.32 228.12 21.55 228.12 21.78 228.12 22.23 228.12 22.46 228.12 22.91 228.12 23.14 228.12 23.59 228.12 24.05 227.89 24.5 227.89 24.73 227.66 25.18 227.43 25.41 227.43 25.64 227.2 25.86 227.2 26.09 226.97 26.09 226.97 26.32 226.97 26.54 226.97 26.77 226.97 27 226.97 27.45 226.97 27.68 227.2 27.91 227.2 28.14 227.43 28.36 227.66 28.58 227.89 28.81 228.12 29.04 228.12 29.04 228.12 29.04 228.12 29.04 228.35 29.04 228.35 29.04 228.59 29.04 228.59 29.04 228.59 29.04 228.82 29.04 229.05 29.04 229.28 29.04 229.51 28.81 229.51 28.81 229.74 28.58 229.97 28.36 229.97 28.14 230.21 28.14 230.44 27.91 230.44 27.68 230.44 27.68 230.67 27.45 230.67 27.23 230.67 27 230.67 26.77 230.67 26.54 230.67 26.54 230.67 26.32 230.67 26.09 230.44 25.86 230.44 25.86 230.21 25.64 230.21 25.41 229.74 23.37 229.05 17.02 229.28 17.02 229.51 16.79 229.51 16.56 229.74 16.34 229.74 16.34 229.74 16.11 229.97 15.88 229.97 15.66 229.97 15.43 229.74 15.2 229.74 15.2 229.74 14.98 229.74 14.98 229.51 14.75 229.51 14.52 229.51 14.52 229.51 14.3 229.51 14.07 229.51 14.07 229.51 13.84 229.51 13.61 229.51 13.61 229.51 13.39 229.51 13.16 229.51 13.16 229.51 13.16 229.51 12.93 229.51 12.93 229.51 12.93 229.51 12.93 229.51 12.71 229.51 12.71 229.51 12.48 229.51 12.25 229.74 12.03 229.74 11.8 229.74 11.57 229.97 11.35 229.97 11.12 230.21 10.89 230.21 10.67 230.44 10.67 230.44 10.67 230.67 10.67 230.67 10.67 230.9 10.67 230.9 10.67 231.13 10.67 231.36 10.67 231.59 10.44 231.83 10.44 232.06 10.21 232.06 9.98 232.29 9.76 232.29 9.53 232.29 9.3 232.29 8.85 232.29 8.62 232.06 8.4 232.06 8.17 231.83 8.17 231.59 7.94 231.36 7.72 231.13 7.72 231.13 7.49 231.13 7.49 230.9 7.49 230.9 7.26 230.9 7.26 230.67 7.26 230.67 7.26 230.44 7.26 230.44 7.26 230.21 7.26 230.21 7.26 229.97 7.26 229.97 7.49 229.97 7.49 229.74 7.49 229.74 7.49 229.74 7.72 229.51 7.72 229.28 7.72 229.28 7.72 229.05 7.72 228.82 7.72 228.82 7.72 228.59 7.72 228.35 7.72 228.12 7.72 228.12 7.72 227.89 7.72 227.66 7.72 227.43 7.72 227.2 7.72 226.97 7.72 226.74 7.72 226.74 7.72 226.51 7.72 226.51 7.72 226.28 7.72 226.28 7.72 226.04 7.72 226.04 7.49 226.04 7.49 225.81 7.49 225.81 7.49 225.81 7.49 225.81 7.49 225.81 7.49 225.81 7.49 225.81 7.49 225.58 7.49 225.58 7.72 225.58 7.72 225.35 7.72 225.35 7.72 225.12 7.72 225.12 7.72 225.12 7.94 225.12 7.94 224.89 8.17 224.89 8.17 224.89 8.4 224.89 8.4 224.66 8.4 224.66 8.62 224.43 8.62 224.89 9.3 224.89 9.53 225.12 9.53 225.12 9.76 225.35 9.76 225.58 9.76 225.58 9.76 225.81 9.76 226.04 9.76 226.04 9.76 226.28 9.76 226.28 9.76 226.51 9.76 226.51 9.76 226.51 9.76 226.74 9.53 226.74 9.53 226.97 9.53 227.2 9.3 227.43 9.3 227.66 9.3 227.89 9.3 228.12 9.3 228.35 9.3 228.59 9.3 228.59 9.3 228.59 9.53 228.82 9.53 228.82 9.53 228.82 9.76 228.82 9.76 229.05 9.98 229.05 9.98 229.05 10.21 229.05 10.21 229.05 10.21 228.82 10.44 228.82 10.44 228.82 10.44 228.82 10.67 228.59 10.67 227.89 13.16 227.66 13.84 227.66 14.07 227.66 14.3 227.43 14.52 227.2 14.75 226.97 14.75 226.51 14.98 226.28 14.75 225.81 14.75 225.81 14.75 225.58 14.75 225.58 14.75 225.35 14.52 225.12 14.52 225.12 14.52 224.89 14.52 224.66 14.52 224.43 14.75 224.19 14.75 223.96 14.75 223.96 14.75 223.73 14.75 223.5 14.75 223.27 14.98 223.04 14.98 223.04 14.52 223.04 14.3 223.27 13.84 223.5 13.61 223.73 13.39 223.96 13.16 224.19 13.16 224.66 13.16 224.66 13.16 224.89 13.16 224.89 13.16 224.89 13.16 224.89 13.16 224.89 13.16 224.89 13.16 224.89 13.16 225.35 12.93 225.81 12.93 226.04 12.93 226.51 12.93 226.74 13.16 227.2 13.16 227.66 13.16 227.89 13.16 228.35 11.35 228.35 11.35"/><polygon class="a4cd57ad-02ff-4178-a110-681b6742531b" points="215.18 20.19 215.18 19.96 214.94 19.74 214.94 19.51 214.71 19.51 214.48 19.28 214.25 19.28 214.25 19.28 214.02 19.06 213.79 19.06 213.79 19.28 213.56 19.28 213.56 19.28 213.33 19.28 213.33 19.28 213.09 19.51 213.09 19.51 212.17 20.19 212.17 20.19 212.17 20.42 211.94 20.42 211.94 20.42 211.94 20.65 211.94 20.65 211.94 20.65 211.94 20.87 211.94 20.87 211.94 21.1 212.17 21.1 212.17 21.1 212.17 21.32 212.4 21.32 212.63 21.32 212.63 21.32 213.56 21.55 213.79 21.55 214.02 21.55 214.25 21.55 214.48 21.78 214.48 21.78 214.71 22.01 214.71 22.23 214.71 22.46 214.71 22.46 214.71 22.46 214.71 22.68 214.71 22.68 214.71 22.68 214.48 22.68 214.48 22.91 214.48 22.91 214.48 23.14 214.48 23.37 214.25 23.59 214.25 23.82 214.25 24.27 214.25 24.5 214.25 24.73 214.25 24.96 214.25 25.18 214.25 25.18 214.25 25.41 214.48 25.64 214.48 25.86 214.48 26.09 214.48 26.09 214.48 26.32 214.94 25.18 215.18 25.18 215.41 24.96 215.64 24.96 215.64 24.73 215.87 24.73 216.1 24.73 216.33 24.73 216.56 24.73 216.79 24.73 216.79 24.73 217.03 24.73 217.03 24.73 217.03 24.73 217.26 24.73 217.26 24.73 217.26 24.73 217.49 24.73 217.72 24.73 217.95 24.73 218.18 24.73 218.18 24.5 218.41 24.5 218.41 24.5 218.65 24.27 218.87 24.27 219.11 24.27 219.57 24.27 219.8 24.27 220.03 24.27 220.26 24.27 220.49 24.27 220.73 24.27 220.96 24.5 220.96 24.5 221.19 24.73 221.19 24.73 221.42 24.73 221.42 24.73 221.65 24.73 221.65 24.73 221.88 24.73 222.11 24.73 222.34 24.5 222.58 24.27 222.58 24.27 222.81 24.05 222.81 23.59 222.81 23.37 222.81 23.37 222.81 23.14 222.81 23.14 222.81 22.91 222.58 22.91 222.58 22.91 222.58 22.68 222.34 22.68 220.26 22.68 222.58 19.96 222.58 19.96 222.34 19.74 222.34 19.74 222.34 19.74 222.11 19.74 222.11 19.74 221.88 19.74 221.88 19.74 221.65 19.74 221.42 19.74 221.42 19.74 221.19 19.96 220.96 19.96 220.96 19.96 220.73 20.19 220.49 20.19 220.26 20.42 219.8 20.42 219.34 20.42 218.87 20.42 218.65 20.42 218.18 20.42 217.72 20.42 217.26 20.19 217.26 20.19 217.26 20.19 217.26 20.19 217.03 20.19 217.03 20.19 217.03 20.19 217.03 20.19 217.03 20.19 216.79 20.19 216.56 20.42 216.33 20.42 216.1 20.65 215.87 20.87 215.87 20.87 215.64 21.1 215.64 21.32 215.64 22.01 215.87 22.91 216.1 23.14 216.33 23.14 216.56 23.14 216.79 23.37 216.79 23.37 217.03 23.37 217.26 23.37 217.49 23.37 217.72 23.37 217.95 23.37 217.95 23.37 218.18 23.14 218.41 23.14 218.65 23.14 218.65 22.91 218.87 22.91 219.11 22.91 219.11 22.68 219.34 22.68 219.57 22.68 219.8 22.68 219.8 22.68 220.03 22.68 220.26 22.68 222.34 22.68 222.34 22.23 222.58 22.01 222.58 21.78 222.81 21.55 223.04 21.32 223.27 21.1 223.5 21.1 223.96 20.87 223.96 20.87 223.96 20.87 224.19 20.87 224.19 20.87 224.19 20.87 224.19 20.87 224.19 20.87 224.19 20.87 224.43 20.87 224.66 20.87 224.89 20.65 225.12 20.42 225.35 20.19 225.35 19.96 225.58 19.74 225.58 19.51 225.35 19.28 225.35 19.06 225.35 18.83 225.12 18.61 224.89 18.38 224.66 18.38 224.43 18.15 224.19 18.15 223.73 18.38 223.5 18.38 223.27 18.38 223.27 18.38 223.04 18.38 222.81 18.38 222.81 18.38 222.58 18.38 222.34 18.38 221.88 18.38 221.42 18.61 220.96 18.61 220.49 18.61 220.03 18.61 219.57 18.61 219.11 18.61 218.65 18.61 218.41 18.83 218.18 19.06 217.95 19.06 217.72 19.28 217.26 19.28 217.03 19.28 216.79 19.28 216.56 19.28 215.18 20.19 215.18 20.19"/><polygon class="bf5d6672-b363-48e4-a9ca-4c58caea0106" points="247.08 13.84 249.16 13.84 250.78 15.2 251.01 15.2 251.25 15.43 251.48 15.43 251.71 15.66 251.94 16.11 252.17 16.34 252.17 16.56 252.17 17.02 252.17 17.02 252.17 17.24 252.17 17.24 252.17 17.47 252.17 17.7 252.17 17.7 251.94 17.92 251.94 17.92 251.71 18.61 251.25 19.28 250.78 19.74 250.32 20.19 249.86 20.65 249.16 21.1 248.47 21.55 247.78 21.78 247.08 21.55 246.62 21.55 246.16 21.55 245.46 21.32 245 21.32 244.31 21.1 243.85 20.87 243.38 20.65 243.16 20.65 242.92 20.87 242.69 20.87 242.46 20.87 242.23 21.1 242.23 21.1 242 21.32 241.77 21.55 241.54 21.78 241.3 22.23 241.07 22.46 240.84 22.91 240.61 23.37 240.15 23.82 239.91 24.27 239.69 24.73 239.46 24.73 239.46 24.73 239.46 24.73 239.46 24.73 239.46 24.96 239.46 24.96 239.46 24.96 239.46 24.96 239.46 25.41 239.69 25.86 239.69 26.32 239.91 26.77 240.15 27.23 240.38 27.45 240.84 27.91 241.07 28.14 241.3 28.36 241.3 28.36 241.54 28.36 241.77 28.58 242 28.58 242 28.58 242.23 28.58 242.46 28.58 242.69 28.58 242.69 28.58 242.92 28.58 243.16 28.58 243.38 28.36 243.38 28.36 243.62 28.14 243.62 28.14 243.85 27.68 244.08 27.23 244.31 27 244.77 26.54 245 26.32 245.46 25.86 245.7 25.64 246.16 25.41 246.39 25.18 246.85 24.96 247.08 24.73 247.55 24.73 248.01 24.73 248.24 24.73 248.71 24.73 249.16 24.96 249.4 24.96 249.4 24.96 249.63 24.96 249.86 24.96 249.86 24.96 250.09 24.96 250.32 24.96 250.55 24.96 250.78 24.96 251.01 24.96 251.48 24.96 251.71 24.96 251.94 24.73 252.17 24.73 252.4 24.73 252.87 24.5 253.1 24.27 253.33 24.27 253.79 24.05 254.02 24.05 254.25 23.82 254.72 23.82 254.95 23.59 255.18 23.59 255.64 23.59 255.87 23.59 256.1 23.59 256.56 23.82 256.8 23.82 257.26 24.05 257.49 24.05 257.72 24.27 258.19 24.5 258.65 24.73 259.11 24.96 259.57 25.18 260.04 25.41 260.5 25.41 260.96 25.64 261.42 25.86 261.65 25.86 261.65 25.86 261.65 25.86 261.88 25.86 261.88 25.86 261.88 25.86 261.88 25.86 262.11 25.86 262.11 25.86 262.35 25.86 262.58 25.86 262.81 25.64 262.81 25.64 263.04 25.64 263.27 25.64 263.27 25.64 263.5 25.64 263.5 25.64 263.5 25.64 263.73 25.64 263.73 25.64 263.73 25.64 263.96 25.64 263.96 25.64 264.2 25.64 264.2 25.64 264.43 25.41 264.66 25.41 264.66 25.41 264.89 25.41 264.89 25.41 265.12 25.18 265.35 24.96 265.58 24.73 265.58 24.5 265.81 24.27 266.05 24.05 266.05 23.82 266.28 23.37 266.28 23.14 266.51 23.14 266.74 22.91 266.97 22.68 267.2 22.46 267.44 22.23 267.44 22.01 267.66 21.78 267.66 21.55 267.44 21.55 267.2 21.55 266.97 21.55 266.74 21.78 266.51 21.78 266.28 21.78 266.05 21.78 265.81 22.01 265.35 22.01 265.12 22.01 264.89 22.01 264.43 22.01 264.2 22.01 263.96 22.01 263.73 21.78 263.27 21.78 263.04 21.78 262.81 21.78 262.35 22.01 262.11 22.01 261.65 21.78 261.42 21.78 260.96 21.78 260.73 21.78 260.5 21.78 260.04 21.78 259.8 21.78 259.34 21.78 258.88 21.78 258.65 21.78 258.19 21.78 257.95 21.55 257.72 21.32 257.26 21.1 257.03 20.87 256.56 20.87 256.33 20.65 255.87 20.65 255.41 20.42 255.18 20.42 254.95 20.42 254.72 20.19 254.72 19.96 254.48 19.96 254.48 19.74 254.25 19.51 254.25 19.28 254.25 19.28 254.25 18.83 254.25 18.38 254.25 18.15 254.25 17.7 254.48 17.24 254.48 17.02 254.48 16.56 254.48 16.34 254.48 16.11 254.48 15.88 254.48 15.66 254.48 15.43 254.25 15.2 254.25 14.98 254.25 14.75 254.25 14.52 254.25 14.07 254.25 13.84 254.48 13.61 254.72 13.39 254.95 13.16 255.18 12.93 255.41 12.93 255.64 12.71 255.87 12.71 255.87 12.71 255.87 12.71 256.1 12.93 256.1 12.93 256.1 12.93 256.33 12.93 256.33 12.93 256.56 12.93 257.03 12.71 257.26 12.71 257.72 12.71 257.95 12.48 258.42 12.48 258.65 12.48 258.88 12.25 259.11 12.25 259.34 12.25 259.57 12.25 259.8 12.25 260.04 12.25 260.04 12.25 260.26 12.25 260.5 12.25 260.5 12.25 260.5 12.25 260.5 12.25 260.5 12.25 260.73 12.25 260.73 12.25 260.73 12.25 260.73 12.25 260.96 12.25 260.96 12.48 261.19 12.48 261.42 12.48 261.42 12.48 261.65 12.48 261.65 12.48 261.88 12.48 262.11 12.48 262.11 12.48 262.35 12.48 262.58 12.48 262.58 12.25 262.81 12.25 262.81 12.25 263.04 12.25 263.04 12.03 263.27 12.03 263.27 11.8 263.27 11.57 263.27 11.35 263.5 11.35 263.5 11.12 263.5 10.89 263.5 10.89 263.5 10.89 263.5 10.89 263.5 10.89 263.5 10.89 263.5 10.67 263.5 10.67 263.5 10.67 263.5 10.44 263.5 10.44 263.5 10.21 263.5 10.21 263.73 9.98 263.73 9.98 263.73 9.76 263.73 9.76 263.73 9.53 263.73 9.53 263.73 9.53 263.73 9.53 263.73 9.53 263.73 9.3 263.73 9.3 263.73 9.3 263.73 9.3 263.73 9.3 263.73 9.3 263.73 9.3 263.73 9.08 263.73 9.08 263.73 9.08 263.73 9.08 262.81 8.85 261.88 8.85 260.96 9.08 259.57 8.85 257.72 8.85 256.56 8.85 256.33 8.85 256.1 8.85 255.87 8.85 255.64 9.08 255.41 9.08 255.41 9.08 255.18 9.3 254.95 9.3 253.33 8.4 251.25 8.62 250.78 8.85 250.32 8.85 249.86 8.85 249.4 8.85 248.94 8.85 248.47 8.62 248.01 8.62 247.55 8.4 247.32 8.17 247.08 8.17 246.85 8.17 246.85 8.17 246.62 7.94 246.39 7.94 246.16 7.94 245.93 7.94 245.7 7.94 245.46 7.94 245.46 7.94 245.23 7.94 245 8.17 245 8.17 244.77 8.17 244.54 8.4 242.23 10.89 242.23 10.89 242.23 11.12 242 11.35 242 11.35 242 11.57 241.77 11.8 241.77 12.03 241.77 12.25 241.77 12.48 242 12.93 242.23 13.16 242.46 13.61 242.92 13.84 243.16 13.84 243.62 14.07 243.85 14.07 244.08 14.07 244.08 14.07 244.08 14.07 244.08 14.07 244.08 14.07 244.31 14.07 244.31 14.07 244.31 14.07 244.54 14.07 244.54 14.07 244.54 14.07 244.77 14.07 244.77 14.07 245 14.07 245 14.07 245 14.07 245.23 14.07 245.46 14.07 245.7 14.07 245.93 13.84 246.39 13.84 246.62 13.84 246.85 13.84 247.08 13.84 247.08 13.84"/><polygon class="f35e0099-47d0-49a7-a6fc-5e5c665e62b8" points="279.69 12.03 279.46 12.03 278.99 12.03 278.53 12.03 278.3 12.03 277.84 12.03 277.61 12.03 277.15 12.03 276.91 12.03 276.45 12.25 276.22 12.48 275.99 12.71 275.76 12.93 275.53 13.16 275.3 13.61 275.3 13.84 275.3 14.3 275.3 14.52 275.53 14.98 275.76 15.2 275.99 15.66 276.22 15.88 276.45 16.11 276.91 16.34 277.38 16.34 277.38 16.34 277.38 16.34 277.38 16.34 277.38 16.34 277.38 16.34 277.38 16.34 277.61 16.34 277.61 16.34 278.07 16.34 278.53 16.34 278.99 16.11 279.46 16.11 279.92 15.88 280.15 15.66 280.61 15.43 281.08 15.2 281.31 14.98 281.54 14.98 281.77 14.75 282 14.75 282.23 14.75 282.46 14.75 282.69 14.98 282.93 15.2 282.69 15.43 282.69 15.88 282.46 16.11 282.23 16.34 282.23 16.56 282 16.79 281.77 17.02 281.54 17.24 281.31 17.47 280.84 17.47 280.61 17.7 280.15 17.7 279.92 17.92 279.69 18.15 279.46 18.38 279.23 18.61 278.76 18.83 278.53 18.83 278.3 18.83 278.07 18.83 277.61 18.83 277.38 18.83 277.15 18.83 276.68 18.61 276.68 18.61 276.68 18.61 276.68 18.61 276.68 18.61 276.45 18.61 276.45 18.61 276.45 18.61 276.45 18.61 276.22 18.61 275.76 18.83 275.53 19.06 275.3 19.28 275.06 19.51 274.83 19.74 274.6 20.19 274.6 20.42 274.6 20.65 274.6 20.65 274.83 20.87 274.83 20.87 274.83 20.87 274.83 21.1 274.83 21.1 275.06 21.1 275.06 21.55 275.3 21.78 275.3 22.01 275.53 22.23 275.76 22.23 275.99 22.46 276.22 22.46 276.68 22.46 276.91 22.46 276.91 22.46 277.15 22.46 277.38 22.23 277.38 22.23 277.61 22.23 277.84 22.01 277.84 22.01 278.3 21.55 278.76 21.32 278.99 20.87 279.46 20.65 279.69 20.42 280.15 19.96 280.38 19.74 280.84 19.28 280.84 19.28 280.84 19.28 280.84 19.28 281.08 19.28 281.08 19.06 281.08 19.06 281.31 19.06 281.31 19.06 282.93 20.19 282.93 20.42 282.93 20.65 282.93 20.87 282.93 21.1 282.69 21.32 282.69 21.55 282.69 22.01 282.69 22.23 282.69 22.46 282.93 22.68 282.93 22.91 282.93 23.14 282.93 23.37 282.93 23.82 283.16 24.05 283.16 24.27 283.16 24.5 282.93 24.96 282.93 25.41 282.93 25.86 282.69 26.32 282.69 26.77 282.46 27.23 282.46 27.68 282.23 27.68 282.23 27.91 282.23 27.91 282.23 27.91 282.23 28.14 282.23 28.14 282 28.36 282 28.36 282.23 28.58 282.23 29.04 282.46 29.27 282.69 29.49 282.93 29.72 283.16 29.72 283.39 29.95 283.85 29.95 283.85 29.95 283.85 29.95 283.85 29.95 283.85 29.95 283.85 29.95 283.85 29.95 283.85 29.95 283.85 29.95 284.08 29.72 284.31 29.49 284.54 29.27 284.77 29.04 285 28.58 285 28.36 285.24 27.91 285.24 27.68 285.24 27.45 285.24 27.45 285 27.23 285 27.23 285 27 285 27 285 26.77 285 26.77 285 26.54 285 26.54 285 26.32 285 26.32 285 26.09 285 26.09 285 25.86 285 25.86 285 25.41 285 25.18 284.77 24.96 284.77 24.73 284.77 24.27 284.77 24.05 284.54 23.82 284.54 23.37 284.54 22.91 284.54 22.46 284.54 22.01 284.54 21.55 284.54 21.1 284.54 20.65 284.77 20.19 284.77 19.74 284.77 19.51 284.77 19.28 285 19.28 285 19.06 285 19.06 285.24 18.83 285.47 18.83 285.47 18.83 285.7 18.83 285.7 18.83 285.93 18.83 285.93 18.83 285.93 18.83 286.16 19.06 286.16 19.06 286.39 19.06 286.39 19.06 286.39 19.06 286.63 19.06 286.63 19.06 286.63 19.06 286.86 19.06 286.86 19.06 287.09 19.06 287.32 19.06 287.32 19.06 287.55 19.06 287.78 19.06 287.78 19.06 288.01 18.83 288.25 18.83 288.25 18.61 288.71 17.02 288.71 17.02 288.71 17.02 288.47 16.79 288.47 16.79 288.25 16.79 288.25 16.79 288.01 16.79 288.01 16.79 287.78 16.79 287.78 16.79 287.78 16.79 287.55 16.79 287.55 16.79 287.55 16.79 287.32 17.02 287.32 17.02 287.09 17.02 286.63 17.02 286.39 17.02 285.93 17.02 285.7 17.02 285.24 17.02 285 16.79 284.54 16.79 284.54 16.34 284.54 15.88 284.54 15.43 284.77 14.98 285 14.75 285.47 14.3 285.93 14.07 286.39 13.84 286.63 13.84 286.86 13.84 287.09 13.84 287.32 13.84 287.78 13.61 288.01 13.61 288.25 13.61 288.71 13.61 288.71 13.39 288.71 13.39 288.71 13.39 288.71 13.16 288.94 13.16 288.94 12.93 288.94 12.93 288.94 12.71 288.94 12.48 288.71 12.25 288.71 12.03 288.47 11.8 288.25 11.8 288.01 11.57 287.78 11.57 287.55 11.57 287.32 11.8 287.09 12.03 286.86 12.03 286.63 12.03 286.39 12.03 285.93 11.8 285.7 11.8 285.7 11.57 284.54 9.98 284.77 9.98 285 9.98 285.24 9.76 285.47 9.76 285.7 9.76 285.93 9.76 286.39 9.76 286.63 9.76 286.63 9.53 286.86 9.53 287.09 9.3 287.09 9.08 287.32 8.85 287.32 8.85 287.32 8.62 287.32 8.17 287.32 8.17 287.32 7.94 287.32 7.72 287.09 7.49 287.09 7.49 286.86 7.26 286.86 7.04 286.63 7.04 286.39 6.81 286.39 6.58 286.16 6.58 285.93 6.36 285.7 6.36 285.47 6.13 285.24 6.13 285.24 6.13 285 6.13 284.77 6.13 284.77 6.36 284.54 6.36 284.54 6.36 284.31 6.36 284.31 6.36 284.31 6.58 283.39 8.17 282.93 8.17 282.69 8.4 282.46 8.4 282.23 8.4 282 8.62 281.77 8.62 281.31 8.62 281.08 8.85 280.84 8.85 280.61 8.85 280.38 8.85 280.15 8.85 279.92 9.08 279.69 9.08 279.46 9.08 279.23 9.08 279.23 9.08 278.99 9.3 278.99 9.3 278.99 9.3 278.76 9.53 278.76 9.53 278.76 9.53 278.76 9.76 278.76 9.76 278.76 9.98 278.99 9.98 278.99 9.98 279.23 10.21 279.23 10.21 279.46 10.21 279.46 10.21 279.46 10.21 279.46 10.21 279.46 10.21 279.46 10.21 279.46 10.44 279.46 10.44 279.46 10.44 279.46 10.44 279.46 10.44 279.46 10.67 279.69 10.89 279.69 10.89 279.92 10.89 279.92 11.12 280.15 11.12 280.38 11.12 280.61 10.89 280.84 10.89 281.08 11.12 281.31 11.12 281.54 11.35 281.77 11.35 281.77 11.57 282 11.8 281.77 12.03 281.54 12.25 281.08 12.48 280.84 12.48 280.61 12.48 280.38 12.48 279.92 12.25 279.69 12.03 279.69 12.03"/><polygon class="b1635efc-2433-432e-a0f5-b553b6ae542e" points="293.79 8.85 293.56 8.4 293.56 8.17 293.33 7.94 293.1 7.72 292.64 7.49 292.41 7.26 292.18 7.26 291.71 7.26 291.71 7.26 291.48 7.26 291.48 7.26 291.48 7.26 291.25 7.26 291.25 7.49 291.25 7.49 291.25 7.49 291.02 7.72 290.79 7.94 290.55 8.17 290.32 8.62 289.87 8.62 289.63 8.85 289.4 9.08 288.94 9.3 288.94 9.3 288.94 9.53 288.71 9.53 288.71 9.76 288.47 9.98 288.47 9.98 288.47 10.21 288.47 10.44 288.47 10.67 288.71 10.89 288.71 11.12 288.94 11.35 289.17 11.57 289.63 11.57 289.87 11.8 290.09 11.8 290.32 12.03 290.55 12.03 290.55 12.25 290.79 12.48 290.79 12.71 290.79 12.93 291.02 13.16 291.02 13.39 291.02 13.61 291.02 13.84 291.02 13.84 290.79 14.07 290.79 14.3 290.79 14.3 290.79 14.52 290.79 14.52 290.55 14.75 290.55 14.75 290.55 14.98 290.55 14.98 290.55 15.2 290.55 15.2 290.32 15.43 290.32 15.43 290.55 15.66 290.55 15.66 290.55 15.88 290.55 15.88 290.55 16.11 290.55 16.11 290.79 16.11 290.79 16.34 291.02 16.11 291.25 15.88 291.71 15.66 291.94 15.43 292.41 15.2 292.64 15.2 293.1 14.98 293.56 14.98 294.02 14.98 294.72 14.98 295.18 14.75 295.64 14.75 296.34 14.75 296.8 14.52 297.49 14.52 297.96 14.52 297.96 14.52 297.96 14.52 297.96 14.52 298.19 14.52 298.19 14.52 298.19 14.52 298.19 14.52 298.19 14.52 298.65 14.52 298.88 14.3 298.88 14.3 299.11 14.07 299.34 13.84 299.34 13.61 299.34 13.61 299.34 13.39 299.34 13.16 299.34 12.93 299.34 12.93 299.34 12.71 299.34 12.71 299.11 12.48 299.11 12.48 299.11 12.25 299.11 12.03 299.11 11.57 299.34 11.35 299.57 10.89 299.8 10.67 300.04 10.44 300.5 10.44 300.96 10.21 301.19 9.98 301.42 9.98 301.42 9.76 301.65 9.53 301.89 9.3 301.89 9.08 301.89 8.85 302.12 8.4 301.89 8.17 301.65 7.94 301.42 7.72 301.19 7.49 300.96 7.49 300.73 7.26 300.5 7.26 300.04 7.26 300.04 7.26 299.8 7.26 299.8 7.26 299.8 7.26 299.57 7.26 299.57 7.49 299.57 7.49 299.57 7.49 297.72 8.4 293.79 8.4 293.56 10.44 293.33 10.44 293.1 10.67 293.1 10.67 292.87 10.89 292.87 11.12 292.87 11.35 292.87 11.35 292.87 11.57 292.87 11.8 292.87 12.03 292.87 12.25 292.87 12.48 293.1 12.48 293.1 12.71 293.33 12.71 293.56 12.93 293.79 12.93 294.25 12.71 294.49 12.71 294.95 12.71 295.41 12.48 295.64 12.48 296.11 12.48 296.57 12.48 296.57 12.48 296.8 12.25 296.8 12.25 297.03 12.25 297.26 12.25 297.26 12.03 297.26 12.03 297.49 11.8 297.96 10.44 297.49 10.21 297.26 10.21 297.03 10.21 296.8 10.21 296.57 10.21 296.34 10.21 296.11 10.21 295.87 10.21 295.64 10.21 295.64 10.21 295.41 10.21 295.41 10.21 295.18 10.21 295.18 10.21 295.18 10.21 295.18 10.21 294.95 10.21 294.72 10.21 294.72 10.44 294.49 10.44 294.49 10.44 294.25 10.44 294.25 10.44 294.25 10.44 294.02 10.44 294.02 10.44 293.79 10.44 293.79 10.44 293.79 10.44 293.56 10.44 293.56 10.44 293.56 10.44 293.79 8.85 293.79 8.85"/><polygon class="ffbd10f2-09bb-4184-9f19-30808530016e" points="291.94 18.61 292.41 18.61 292.64 18.61 293.1 18.61 293.33 18.61 293.56 18.61 294.02 18.61 294.25 18.61 294.72 18.61 295.18 18.83 294.95 19.06 294.95 19.06 294.95 19.28 294.72 19.28 294.72 19.51 294.49 19.51 294.49 19.51 294.49 19.74 294.02 19.74 293.79 19.74 293.56 19.74 293.33 19.96 293.1 19.96 293.1 20.19 292.87 20.19 292.64 20.42 292.41 20.42 291.94 20.65 291.71 20.65 291.48 20.65 291.25 20.65 290.79 20.87 290.55 20.87 290.32 20.87 289.4 22.01 289.4 22.01 289.63 22.23 289.63 22.46 289.87 22.46 290.09 22.68 290.09 22.68 290.32 22.68 290.55 22.68 290.55 22.68 290.79 22.68 290.79 22.68 291.02 22.68 291.02 22.68 291.25 22.46 291.25 22.46 291.48 22.46 291.48 22.23 291.71 22.23 291.94 22.01 292.18 22.01 292.18 22.01 292.41 22.01 292.64 22.23 292.87 22.23 293.1 22.46 293.1 22.46 293.33 22.46 293.56 22.46 293.56 22.46 293.79 22.46 294.02 22.46 294.25 22.46 294.25 22.46 294.25 22.46 294.25 22.46 294.49 22.46 294.49 22.46 294.49 22.46 294.49 22.46 294.72 22.46 294.72 22.46 294.72 22.46 294.95 22.68 294.95 22.68 294.95 22.68 294.95 22.68 295.18 22.91 295.18 22.91 295.18 22.91 294.95 23.14 294.95 23.14 294.95 23.37 294.72 23.37 294.72 23.37 294.72 23.37 294.49 23.59 294.49 23.59 294.49 23.37 294.49 23.37 294.49 23.37 294.49 23.37 294.49 23.37 294.49 23.37 294.25 23.37 294.25 23.37 294.25 23.37 294.25 23.37 294.25 23.37 294.25 23.37 294.25 23.37 294.25 23.37 294.25 23.37 293.79 23.37 293.56 23.37 293.33 23.59 293.1 23.59 292.87 23.82 292.64 24.05 292.41 24.27 292.41 24.5 291.94 24.73 291.71 24.73 291.48 24.73 291.25 24.73 290.79 24.73 290.55 24.5 290.32 24.5 290.09 24.27 290.09 24.27 289.87 24.27 289.87 24.27 289.87 24.27 289.63 24.27 289.63 24.27 289.63 24.27 289.4 24.27 288.94 24.5 288.47 24.5 288.01 24.73 287.55 25.18 287.32 25.41 287.09 25.86 286.86 26.32 286.86 27 286.86 27 286.86 27 286.86 27 286.86 27.23 286.86 27.23 286.86 27.23 286.86 27.23 286.86 27.45 286.86 27.68 286.86 27.91 287.09 28.14 287.32 28.36 287.55 28.58 287.78 28.58 288.01 28.81 288.25 28.81 288.25 28.81 288.25 28.81 288.25 28.81 288.25 28.81 288.25 28.81 288.25 28.81 288.47 28.81 288.47 28.81 288.47 28.81 288.47 28.81 288.71 28.81 288.71 28.81 288.71 28.81 288.71 28.81 288.94 28.81 288.94 28.81 289.17 28.81 289.4 28.81 289.63 28.81 289.63 28.58 289.87 28.58 290.09 28.36 290.09 28.14 290.32 28.14 290.32 27.91 290.55 27.68 290.79 27.45 291.02 27.45 291.48 27.23 291.71 27.23 291.94 27.23 292.41 27.45 292.41 27.45 292.41 27.45 292.64 27.45 292.64 27.45 292.64 27.45 292.87 27.68 292.87 27.45 293.1 27.45 293.33 27.45 293.33 27.45 293.56 27.45 293.79 27.45 293.79 27.45 294.02 27.45 294.25 27.23 294.25 27.23 294.49 27.23 294.49 27.23 294.49 27.23 294.49 27.23 294.72 27.23 294.72 27.23 294.72 27.23 294.72 27.23 294.95 27.23 295.18 27.23 295.41 27.23 295.64 27 296.11 27 296.34 27 296.57 26.77 296.8 26.77 297.03 26.54 297.26 26.54 297.49 26.54 297.96 26.32 298.19 26.32 298.42 26.32 298.88 26.32 299.11 26.32 299.57 26.54 300.04 26.77 300.5 26.77 300.96 27 301.42 27 301.89 27.23 302.35 27.23 302.81 27.23 303.04 27 303.5 27 303.74 26.77 303.97 26.77 304.43 26.77 304.66 26.54 304.89 26.54 305.36 26.54 305.58 26.54 305.82 26.54 306.05 26.32 306.05 26.32 306.28 26.09 306.28 25.86 306.51 25.64 306.51 25.41 306.51 25.18 306.51 25.18 306.28 24.96 306.28 24.96 306.28 24.96 306.28 24.73 306.28 24.73 306.05 24.5 306.05 23.59 305.82 23.82 305.36 24.27 304.89 24.5 304.43 24.73 303.97 24.73 303.5 24.73 302.81 24.5 302.35 24.27 302.35 24.27 302.12 24.27 301.89 24.05 301.65 24.05 301.65 24.05 301.42 24.05 301.19 24.05 300.96 24.05 300.96 24.05 300.73 24.05 300.5 24.05 300.5 24.05 300.27 24.05 300.27 24.27 300.04 24.27 300.04 24.27 299.57 24.5 299.11 24.5 298.65 24.5 298.19 24.27 297.72 24.27 297.49 24.05 297.03 23.82 296.8 23.59 296.57 23.37 296.34 22.91 296.34 22.68 296.57 22.46 296.57 22.01 296.8 21.78 297.26 21.55 297.49 21.55 297.96 21.55 298.19 21.55 298.65 21.55 299.11 21.55 299.34 21.55 299.8 21.55 300.27 21.78 300.5 21.78 300.5 21.78 300.5 21.78 300.73 21.78 300.73 21.78 300.73 21.78 300.73 21.78 300.73 21.78 300.73 21.78 300.96 21.78 300.96 21.78 300.96 21.78 301.19 21.55 301.19 21.55 301.19 21.55 301.42 21.32 301.42 21.32 301.42 21.1 301.42 21.1 301.42 21.1 301.42 21.1 301.42 21.1 301.19 20.87 301.19 20.87 301.19 20.87 301.65 19.51 297.96 19.74 296.8 19.06 296.57 18.83 296.57 18.61 296.57 18.38 296.57 17.92 296.57 17.7 296.57 17.47 296.8 17.24 297.03 17.02 297.03 17.02 297.03 16.79 297.03 16.79 297.03 16.79 297.03 16.79 297.03 16.56 297.03 16.56 297.03 16.56 297.03 16.34 297.03 16.11 296.8 16.11 296.8 15.88 296.57 15.88 296.57 15.66 296.34 15.66 296.11 15.66 296.11 15.66 296.11 15.66 296.11 15.66 296.11 15.66 296.11 15.66 296.11 15.66 296.11 15.66 296.11 15.66 295.87 15.66 295.64 15.88 295.41 15.88 295.18 15.66 295.18 15.66 294.95 15.66 294.72 15.66 294.72 15.66 293.79 16.56 293.56 16.56 293.56 16.79 293.33 17.02 293.1 17.02 292.87 17.02 292.64 17.24 292.64 17.24 292.41 17.02 292.18 17.24 291.94 17.24 291.71 17.47 291.48 17.47 291.25 17.47 291.02 17.47 290.79 17.7 290.55 17.7 290.55 17.7 290.32 17.7 290.32 17.7 290.32 17.7 290.32 17.7 290.32 17.7 290.32 17.7 290.32 17.7 290.09 17.7 289.87 17.7 289.87 17.7 289.63 17.7 289.63 17.7 289.4 17.92 289.4 17.92 289.17 17.92 289.4 17.92 289.63 17.92 289.87 18.15 290.09 18.15 290.09 18.38 290.32 18.38 290.55 18.61 290.79 18.83 290.79 18.83 290.79 18.83 290.79 18.83 291.02 18.83 291.02 18.83 291.02 18.83 291.02 18.83 291.25 18.83 291.25 18.83 291.25 18.83 291.48 18.83 291.48 18.83 291.71 18.83 291.71 18.61 291.94 18.61 291.94 18.61 291.94 18.61"/><polygon class="eb3f13ce-b317-4e02-aa9a-14a1bd3f3af3" points="322.23 15.2 322.47 15.2 322.47 15.2 322.7 15.2 322.93 15.2 322.93 15.2 323.16 15.2 323.39 15.2 323.39 15.2 323.62 15.2 323.62 15.2 323.86 15.2 324.08 15.2 324.08 15.2 324.32 15.2 324.55 15.2 324.55 14.98 325.01 14.98 325.47 14.98 325.94 15.2 326.4 15.2 326.86 15.2 327.32 15.2 327.78 15.2 328.25 15.43 328.48 15.43 328.48 15.43 328.71 15.43 328.94 15.43 328.94 15.43 329.17 15.43 329.4 15.43 329.4 15.66 329.63 15.43 329.63 14.98 329.63 14.75 329.87 14.52 329.87 14.3 329.87 14.07 329.87 13.84 329.87 13.39 329.87 13.39 329.87 13.39 329.87 13.39 329.87 13.16 329.87 13.16 329.87 13.16 329.87 13.16 329.87 12.93 329.87 12.93 329.87 12.93 329.87 12.93 329.87 12.93 329.63 12.71 329.63 12.71 329.63 12.71 329.63 12.71 326.4 12.93 325.47 12.71 323.86 12.71 322.7 12.93 319.69 12.93 318.77 12.93 318.54 12.93 318.54 12.93 318.3 12.93 318.3 12.93 318.07 12.93 318.07 12.93 317.84 12.93 317.84 12.93 317.61 12.93 317.38 12.93 317.15 12.93 316.92 12.93 316.92 13.16 316.69 13.16 316.45 13.39 316.45 13.39 315.99 13.61 315.76 13.61 315.3 13.84 315.07 13.84 314.6 13.84 314.37 14.07 313.91 14.07 313.68 14.07 313.22 14.07 312.99 14.07 312.52 14.3 312.29 14.52 311.83 14.75 311.6 14.98 311.37 15.2 311.13 15.43 311.13 15.66 310.91 15.88 310.91 15.88 310.91 16.11 310.91 16.11 310.91 16.34 310.91 16.34 310.91 16.56 310.91 16.79 310.91 17.02 310.91 17.24 311.13 17.47 311.13 17.7 311.37 17.92 311.6 17.92 311.83 18.15 311.83 18.15 311.83 18.15 311.83 18.15 312.06 18.15 312.06 18.15 312.06 18.15 312.29 18.15 312.29 18.15 312.52 18.15 312.75 17.92 312.99 17.92 313.22 17.92 313.45 17.92 313.68 17.7 313.91 17.7 314.14 17.47 314.37 17.02 314.6 16.79 314.83 16.56 315.3 16.34 315.53 16.11 315.99 15.88 316.22 15.88 316.69 15.88 316.69 15.88 316.92 15.88 316.92 15.88 317.15 15.88 317.38 15.88 317.38 15.88 317.61 15.88 317.84 15.88 318.07 15.88 318.3 15.88 318.54 15.88 318.77 15.66 319 15.66 319 15.66 319.23 15.66 319.46 15.43 319.92 15.43 320.15 15.2 320.38 15.2 320.85 14.98 321.08 14.98 321.54 14.98 322 14.98 322.23 15.2 322.23 15.2"/><polygon class="eb5a2d85-68a4-4a60-9191-cf43585701ab" points="316.45 20.87 314.6 22.91 314.37 22.91 314.37 23.14 314.37 23.14 314.37 23.37 314.37 23.37 314.37 23.59 314.37 23.59 314.37 23.82 314.37 23.82 314.37 24.05 314.37 24.05 314.37 24.27 314.37 24.27 314.37 24.27 314.6 24.5 314.6 24.5 315.07 24.5 315.53 24.5 315.99 24.27 316.22 24.27 316.69 24.05 317.15 24.05 317.61 24.05 318.07 23.82 318.54 23.59 319.23 23.37 319.92 23.14 320.38 22.91 321.08 22.91 321.77 22.68 322.47 22.68 323.16 22.68 323.39 22.68 323.62 22.68 323.86 22.46 324.08 22.46 324.32 22.23 324.32 22.01 324.55 21.78 324.55 21.78 324.55 21.32 324.78 20.87 325.01 20.65 325.24 20.42 325.47 20.19 325.94 19.96 326.17 19.74 326.63 19.74 326.86 19.74 327.09 19.74 327.09 19.51 327.32 19.51 327.55 19.28 327.55 19.06 327.78 18.83 327.78 18.61 327.55 18.61 327.55 18.38 327.55 18.15 327.32 17.92 327.32 17.92 327.09 17.7 326.86 17.7 326.86 17.47 326.4 17.47 326.17 17.24 325.94 17.24 325.47 17.24 325.24 17.24 325.01 17.02 324.55 17.02 324.32 17.02 324.32 17.02 324.32 17.02 324.32 17.02 324.08 17.02 324.08 17.02 324.08 17.02 324.08 17.02 324.08 17.02 324.08 18.61 323.62 20.65 323.39 20.65 323.16 20.87 322.93 20.87 322.7 20.87 322.7 20.87 322.47 20.87 322.23 20.87 322 20.65 322 20.65 322 20.65 322 20.87 321.77 20.87 321.77 20.87 321.77 20.87 321.77 20.87 321.54 20.87 321.08 20.87 320.62 20.87 320.15 20.87 319.69 21.1 319.23 21.1 318.77 21.32 318.3 21.55 317.61 21.55 317.84 21.32 317.84 20.87 317.84 20.65 318.07 20.19 318.07 19.96 318.3 19.51 318.3 19.28 318.54 18.83 318.77 18.83 318.77 18.83 319 18.83 319.23 18.83 319.46 18.83 319.69 18.83 319.69 18.83 319.92 18.83 320.15 18.83 320.38 18.83 320.85 18.83 321.08 18.83 321.31 18.83 321.54 18.61 321.77 18.61 322.23 18.61 322.47 18.61 322.7 18.61 322.93 18.38 323.16 18.38 323.39 18.61 323.62 18.61 323.86 18.61 324.08 18.61 324.08 17.02 323.86 17.02 323.86 16.79 323.62 16.79 323.39 16.79 323.16 16.56 322.93 16.56 322.93 16.56 322.7 16.56 322.47 16.56 322.23 16.56 322.23 16.56 322 16.79 322 16.79 321.77 16.79 321.77 16.79 321.54 16.79 321.31 17.02 321.08 17.02 320.62 17.24 320.38 17.24 319.92 17.47 319.69 17.47 319.46 17.47 319 17.47 318.77 17.47 318.54 17.47 318.3 17.47 318.07 17.47 317.84 17.47 317.61 17.47 317.38 17.47 317.15 17.24 316.92 17.47 316.45 17.47 316.22 17.7 315.99 17.92 315.76 18.15 315.53 18.38 315.3 18.61 315.3 19.06 315.3 19.06 315.3 19.06 315.07 19.06 315.07 19.06 315.07 19.06 315.07 19.28 315.07 19.28 315.07 19.28 315.07 19.51 315.3 19.74 315.3 19.74 315.53 19.96 315.53 20.19 315.76 20.19 315.99 20.42 316.22 20.42 316.22 20.42 316.22 20.42 316.45 20.42 316.45 20.42 316.45 20.42 316.45 20.65 316.45 20.65 316.45 20.65 316.45 20.65 316.45 20.65 316.45 20.87 316.45 20.87 316.45 20.87 316.45 20.87 316.45 20.87 316.45 20.87 316.45 20.87"/><polygon class="e42c89d9-e9c2-4ba5-9d00-5e2ca14bd038" points="323.62 23.37 323.39 24.05 323.16 24.5 322.93 24.96 322.93 25.64 322.7 26.09 322.7 26.77 322.7 27.23 322.7 27.91 322.7 28.36 322.93 28.58 322.93 29.04 323.16 29.27 323.62 29.49 323.86 29.72 324.08 29.95 324.55 29.95 325.01 29.72 325.7 29.49 326.17 29.27 326.86 28.81 327.32 28.58 328.02 28.14 328.48 27.91 328.94 27.45 329.63 26.54 330.33 25.64 331.02 24.73 331.72 23.82 332.41 22.91 333.1 22.01 333.57 21.1 334.26 19.96 334.49 19.51 334.72 18.83 334.95 18.15 335.18 17.47 335.41 16.79 335.41 15.88 335.65 15.2 335.65 14.52 335.65 14.3 335.88 14.07 335.88 13.84 335.88 13.61 335.88 13.39 335.88 13.16 335.88 12.93 335.88 12.93 335.88 12.48 335.88 12.03 335.65 11.8 335.65 11.35 335.41 11.12 335.18 10.67 334.95 10.44 334.72 10.21 334.49 9.98 334.03 9.76 333.8 9.53 333.57 9.53 333.1 9.3 332.87 9.08 332.64 8.85 332.41 8.4 332.18 8.4 331.94 8.17 331.94 7.94 331.72 7.72 331.48 7.72 331.25 7.72 331.02 7.49 330.56 7.49 330.56 7.49 330.56 7.49 330.56 7.49 330.56 7.49 330.56 7.49 330.56 7.49 330.56 7.49 330.56 7.49 330.1 7.49 329.63 7.49 329.17 7.49 328.71 7.49 328.25 7.26 327.78 7.26 327.32 7.04 327.09 6.81 326.63 6.81 326.4 6.81 325.94 6.81 325.7 6.58 325.24 6.58 325.01 6.58 324.78 6.58 324.32 6.58 323.86 6.58 323.62 6.58 323.39 6.36 322.93 6.36 322.7 6.36 322.47 6.36 322 6.13 321.77 6.13 321.31 6.13 320.62 6.36 320.15 6.58 319.69 6.81 319.23 7.26 318.77 7.49 318.54 7.94 318.3 8.4 317.84 9.08 318.3 10.67 318.3 10.89 318.54 11.12 318.77 11.35 319 11.57 319.23 11.57 319.69 11.8 319.92 11.8 320.15 11.8 320.38 11.8 320.62 11.8 320.85 11.8 321.08 11.57 321.08 11.57 321.31 11.35 321.54 11.35 321.54 11.12 321.77 10.89 322 10.67 322.23 10.67 322.47 10.44 322.7 10.44 322.93 10.21 323.16 10.21 323.62 10.21 324.08 10.21 324.55 10.21 325.01 10.21 325.47 10.21 325.94 9.98 326.4 9.98 326.86 9.98 327.32 9.98 327.55 9.98 327.78 9.98 327.78 10.21 328.02 10.21 328.25 10.21 328.48 10.21 328.48 10.21 328.71 10.44 328.94 10.44 328.94 10.67 329.17 10.67 329.17 10.67 329.4 10.89 329.63 10.89 329.63 10.89 329.87 11.12 330.56 11.12 331.02 11.12 331.48 11.35 331.94 11.57 332.41 12.03 332.87 12.25 333.33 12.71 333.57 13.16 333.8 13.39 333.8 13.39 333.8 13.61 333.8 13.84 333.8 13.84 333.8 14.07 333.8 14.07 333.8 14.3 333.8 14.52 333.8 14.75 333.8 14.98 333.8 15.2 333.8 15.66 333.57 15.88 333.57 16.11 333.57 16.34 333.33 17.24 332.87 18.15 332.64 19.06 332.18 19.96 331.72 20.87 331.25 21.78 330.56 22.46 330.1 23.37 329.87 23.59 329.4 24.05 329.17 24.27 328.94 24.73 328.48 24.96 328.25 25.18 327.78 25.41 327.55 25.64 327.32 25.86 326.86 25.86 326.63 25.64 326.4 25.64 326.17 25.64 325.94 25.41 325.7 25.18 325.47 25.18 325.47 24.96 325.24 24.73 325.01 24.5 325.01 24.5 324.78 24.27 324.55 24.05 324.32 23.82 324.32 23.59 324.08 23.59 324.08 23.59 324.08 23.59 324.08 23.59 323.86 23.37 323.86 23.37 323.62 23.37 323.62 23.37 323.62 23.37"/></g></g></svg>